<?xml version="1.0" encoding="utf-8"?>
<!-- Generator: Adobe Illustrator 18.0.0, SVG Export Plug-In . SVG Version: 6.00 Build 0)  -->
<!DOCTYPE svg PUBLIC "-//W3C//DTD SVG 1.1//EN" "http://www.w3.org/Graphics/SVG/1.1/DTD/svg11.dtd">
<svg version="1.1" id="Layer_1" xmlns="http://www.w3.org/2000/svg" xmlns:xlink="http://www.w3.org/1999/xlink" x="0px" y="0px"
	 viewBox="0 0 2062.2 1280" enable-background="new 0 0 2062.2 1280" xml:space="preserve">
<path fill="#00008D" d="M109.6,1009.6c0,0,29.1-74.6-12.2-163.7c0,0-60.8-87.8-75.8-107.3C6.6,719.1-6.1,647,3.1,628.8
	c0,0,16-43.8,44.7-66.4c0,0,22-23.7,144.7-55.7s179.3-116,193.3-148.7s38.7-181.7,259.3-185.7l264,63.7c0,0,152.7,38.7,228.7-142.7
	c0,0,31.3-76.7,68.7-93.3h535.3c0,0,14.7,22,7.3,76.7s-46,154-56.7,218.7c-10.7,64.7-51.2,136.7,58.7,331.3L1961.8,832
	c0,0,76.7,73.8,93.3,177.6c16.7,103.8,4.7,195.8-41.3,270.4H33.2c0,0-22.5-40.9,28.5-150.4"/>
</svg>
