<?xml version="1.0" encoding="iso-8859-1"?>
<!-- Generator: Adobe Illustrator 19.0.0, SVG Export Plug-In . SVG Version: 6.00 Build 0)  -->
<svg xmlns="http://www.w3.org/2000/svg" xmlns:xlink="http://www.w3.org/1999/xlink" version="1.1" id="Capa_1" x="0px" y="0px" viewBox="0 0 512 512" style="enable-background:new 0 0 512 512;" xml:space="preserve" width="512px" height="512px">
<g>
	<g>
		<path d="M256,45c-28.949,0-52.5,23.552-52.5,52.5S227.051,150,256,150c28.949,0,52.5-23.552,52.5-52.5S284.949,45,256,45z M256,60    c12.242,0,23.131,5.898,29.98,15H256c-7.614,0-14.583-3.859-18.693-9.988C242.814,61.831,249.195,60,256,60z M256,135    c-20.678,0-37.5-16.822-37.5-37.5c0-8.43,2.798-16.219,7.512-22.489C232.972,84.263,244.011,90,256,90h36.745    c0.494,2.424,0.755,4.932,0.755,7.5C293.5,118.178,276.678,135,256,135z" fill="#0068fe"/>
	</g>
</g>
<g>
	<g>
		<path d="M136,45c-24.65,0-45.375,17.081-50.99,40.025C67.547,85.552,53.5,99.911,53.5,117.5c0,17.921,14.58,32.5,32.5,32.5    c8.103,0,15.803-3.02,21.703-8.314C115.876,146.938,125.584,150,136,150c28.949,0,52.5-23.552,52.5-52.5S164.949,45,136,45z     M136,60c17.96,0,33.005,12.694,36.651,29.58c-20.154-2-38.58-11.212-52.297-26.147C125.12,61.236,130.417,60,136,60z M86,135    c-9.649,0-17.5-7.851-17.5-17.5c0-8.822,6.569-16.121,15.068-17.311c0.609,12.005,5.28,22.95,12.649,31.51    C93.277,133.814,89.718,135,86,135z M136,135c-20.678,0-37.5-16.822-37.5-37.5c0-9.663,3.675-18.483,9.699-25.138    c16.692,18.803,39.576,30.243,64.607,32.298C169.454,121.924,154.229,135,136,135z" fill="#0068fe"/>
	</g>
</g>
<g>
	<g>
		<path d="M428.501,292.5v-92.813c46.406-3.825,83-42.81,83-90.187v-12c0-4.143-3.358-7.5-7.5-7.5c-4.142,0-7.5,3.357-7.5,7.5v12    c0,39.484-30.472,71.964-69.13,75.212c-2.439-8.241-8.64-14.879-16.609-17.916c10.869-9.625,17.739-23.67,17.739-39.296v-30    c0-28.948-23.551-52.5-52.5-52.5c-28.949,0-52.5,23.552-52.5,52.5v30c0,15.626,6.87,29.67,17.739,39.296    c-8.061,3.072-14.313,9.83-16.691,18.204h-17.096c-3.274-11.528-13.889-20-26.452-20h-50c-12.563,0-23.178,8.472-26.452,20    h-17.096c-3.274-11.528-13.889-20-26.452-20h-50c-12.458,0-23.002,8.331-26.37,19.712C45.972,181.464,15.5,148.984,15.5,109.5v-12    c0-4.143-3.358-7.5-7.5-7.5s-7.5,3.357-7.5,7.5v12c0,47.377,36.594,86.361,83,90.187v60.072c-9.693,11.988-15,26.935-15,42.406    v45.646c0,4.143,3.358,7.5,7.5,7.5h21.412v44.86l-74.783,24.927c-3.063,1.021-5.128,3.887-5.128,7.115v31.623    c0,4.143,3.358,7.5,7.5,7.5c4.142,0,7.5-3.357,7.5-7.5v-26.218l74.783-24.927c3.063-1.021,5.128-3.887,5.128-7.115V355.31H158.5    V494.5c0,3.229,2.066,6.095,5.128,7.115l30,10c0.77,0.257,1.571,0.385,2.372,0.385c0.801,0,1.602-0.128,2.372-0.385l30-10    c3.063-1.021,5.128-3.887,5.128-7.115V339.924c6.824,3.251,14.452,5.076,22.5,5.076c8.048,0,15.676-1.825,22.5-5.076V494.5    c0,3.229,2.066,6.095,5.128,7.115l30,10c0.77,0.257,1.571,0.385,2.372,0.385c0.801,0,1.602-0.128,2.372-0.385l30-10    c3.063-1.021,5.128-3.887,5.128-7.115V339.924c6.824,3.251,14.452,5.076,22.5,5.076c8.481,0,16.491-2.034,23.588-5.62v66.196    c0,3.229,2.066,6.095,5.128,7.115l74.783,24.927v26.218c0,4.143,3.358,7.5,7.5,7.5c4.142,0,7.5-3.357,7.5-7.5v-31.623    c0.001-3.229-2.065-6.095-5.127-7.115l-74.783-24.927v-72.12C423.218,318.692,428.501,306.203,428.501,292.5z M338.5,97.5    c0-20.678,16.822-37.5,37.5-37.5c20.678,0,37.5,16.822,37.5,37.5v2.5h-15.139c-5.652-6.325-13.746-10-22.361-10    s-16.708,3.675-22.361,10H338.5V97.5z M338.5,127.5V115h18.792c2.502,0,4.84-1.248,6.232-3.328    C366.321,107.494,370.985,105,376,105s9.679,2.494,12.476,6.672c1.392,2.08,3.73,3.328,6.232,3.328H413.5v12.5    c0,20.678-16.822,37.5-37.5,37.5C355.322,165,338.5,148.178,338.5,127.5z M98.5,192.5c0-6.893,5.607-12.5,12.5-12.5h50    c6.893,0,12.5,5.607,12.5,12.5V255h-75V192.5z M83.5,340.311v-38.146c0-11.687,3.905-22.982,11.039-32.165H173.5v70.311h-7.481    C165.98,340.311,83.5,340.311,83.5,340.311z M218.5,489.095l-22.5,7.5l-22.5-7.5V355.311h7.5c4.142,0,7.5-3.357,7.5-7.5V200h15    v92.5c0,14.269,5.73,27.22,15,36.692V489.095z M218.5,192.5c0-6.893,5.607-12.5,12.5-12.5h50c6.893,0,12.5,5.607,12.5,12.5V285    h-75V192.5z M256.001,330c-18.11,0-33.262-12.904-36.746-30h73.491C289.262,317.096,274.111,330,256.001,330z M338.5,489.095    l-22.5,7.5l-22.5-7.5V329.192c9.27-9.472,15-22.423,15-36.692V200h15v92.5c0,14.269,5.73,27.22,15,36.692V489.095z M376.001,330    c-18.11,0-33.262-12.904-36.746-30h73.491C409.262,317.096,394.111,330,376.001,330z M413.5,285h-75v-92.5    c0-6.893,5.607-12.5,12.5-12.5h17.5v82.5c0,4.143,3.358,7.5,7.5,7.5c4.142,0,7.5-3.357,7.5-7.5V180H401    c6.893,0,12.5,5.607,12.5,12.5V285z" fill="#0068fe"/>
	</g>
</g>
<g>
	<g>
		<path d="M52.5,15C40.093,15,30,25.094,30,37.5S40.093,60,52.5,60S75,49.906,75,37.5S64.907,15,52.5,15z M52.5,45    c-4.136,0-7.5-3.364-7.5-7.5s3.364-7.5,7.5-7.5s7.5,3.364,7.5,7.5S56.636,45,52.5,45z" fill="#0068fe"/>
	</g>
</g>
<g>
	<g>
		<circle cx="109.81" cy="7.5" r="7.5" fill="#0068fe"/>
	</g>
</g>
<g>
	<g>
		<circle cx="196" cy="36.5" r="7.5" fill="#0068fe"/>
	</g>
</g>
<g>
	<g>
		<circle cx="402.19" cy="22.5" r="7.5" fill="#0068fe"/>
	</g>
</g>
<g>
	<g>
		<circle cx="22.5" cy="217.5" r="7.5" fill="#0068fe"/>
	</g>
</g>
<g>
	<g>
		<path d="M22.5,269C10.093,269,0,279.094,0,291.5S10.093,314,22.5,314S45,303.906,45,291.5S34.907,269,22.5,269z M22.5,299    c-4.136,0-7.5-3.364-7.5-7.5s3.364-7.5,7.5-7.5s7.5,3.364,7.5,7.5S26.636,299,22.5,299z" fill="#0068fe"/>
	</g>
</g>
<g>
	<g>
		<path d="M489.5,269c-12.407,0-22.5,10.094-22.5,22.5s10.093,22.5,22.5,22.5c12.407,0,22.5-10.094,22.5-22.5S501.907,269,489.5,269    z M489.5,299c-4.136,0-7.5-3.364-7.5-7.5s3.364-7.5,7.5-7.5s7.5,3.364,7.5,7.5S493.636,299,489.5,299z" fill="#0068fe"/>
	</g>
</g>
<g>
	<g>
		<path d="M314.871,0c-12.407,0-22.5,10.094-22.5,22.5s10.093,22.5,22.5,22.5c12.407,0,22.5-10.094,22.5-22.5S327.278,0,314.871,0z     M314.871,30c-4.136,0-7.5-3.364-7.5-7.5s3.364-7.5,7.5-7.5c4.136,0,7.5,3.364,7.5,7.5S319.007,30,314.871,30z" fill="#0068fe"/>
	</g>
</g>
<g>
	<g>
		<circle cx="444.5" cy="52.5" r="7.5" fill="#0068fe"/>
	</g>
</g>
<g>
	<g>
		<circle cx="489.5" cy="217.5" r="7.5" fill="#0068fe"/>
	</g>
</g>
<g>
	<g>
		<circle cx="459.5" cy="247.5" r="7.5" fill="#0068fe"/>
	</g>
</g>
<g>
</g>
<g>
</g>
<g>
</g>
<g>
</g>
<g>
</g>
<g>
</g>
<g>
</g>
<g>
</g>
<g>
</g>
<g>
</g>
<g>
</g>
<g>
</g>
<g>
</g>
<g>
</g>
<g>
</g>
</svg>
