<?xml version="1.0" encoding="utf-8"?>
<!-- Generator: Adobe Illustrator 19.0.0, SVG Export Plug-In . SVG Version: 6.00 Build 0)  -->
<svg version="1.1" id="Layer_1" xmlns="http://www.w3.org/2000/svg" xmlns:xlink="http://www.w3.org/1999/xlink" x="0px" y="0px"
	 viewBox="0 0 408.1 805.5" style="enable-background:new 0 0 408.1 805.5;" xml:space="preserve">
<style type="text/css">
	.st0{fill:#E6E6E5;}
	.st1{fill:#F3F3F3;}
	.st2{fill:#F5F6F6;}
	.st3{fill:url(#XMLID_80_);}
	.st4{fill:url(#XMLID_81_);}
	.st5{fill:url(#XMLID_82_);}
	.st6{fill:url(#XMLID_83_);}
	.st7{fill:url(#XMLID_84_);}
	.st8{clip-path:url(#XMLID_85_);fill:#F3F3F3;}
	.st9{clip-path:url(#XMLID_86_);fill:url(#XMLID_87_);}
	.st10{fill:#030303;}
	.st11{fill:#FFFFFF;}
</style>
<g id="XMLID_1536_">
	<g id="XMLID_1538_">
		<g id="XMLID_1540_">
			<g id="XMLID_1542_">
				<g id="XMLID_1556_">
					<path id="XMLID_1567_" class="st0" d="M393.4,727.3c0,36.2-29.3,65.5-65.5,65.5H76.6c-36.2,0-65.5-29.3-65.5-65.5V75.2
						C11.2,39,40.5,9.7,76.6,9.7h251.2c36.2,0,65.5,29.3,65.5,65.5V727.3z"/>
					<path id="XMLID_1566_" class="st1" d="M390.8,724.2c0,35.8-28.9,64.9-64.6,64.9H78.3c-35.7,0-64.6-29-64.6-64.9v-646
						c0-35.8,28.9-64.9,64.6-64.9h247.8c35.7,0,64.6,29,64.6,64.9V724.2z"/>
					<path id="XMLID_1565_" class="st2" d="M388.8,721.9c0,35.6-28.6,64.4-63.9,64.4H79.6c-35.3,0-63.9-28.8-63.9-64.4V80.6
						c0-35.6,28.6-64.4,63.9-64.4h245.3c35.3,0,63.9,28.8,63.9,64.4V721.9z"/>
				</g>
				<g id="XMLID_1550_">
					<radialGradient id="XMLID_80_" cx="219.0442" cy="34.4796" r="4.7047" gradientUnits="userSpaceOnUse">
						<stop  offset="0" style="stop-color:#373636"/>
						<stop  offset="1" style="stop-color:#030303"/>
					</radialGradient>
					<circle id="XMLID_1555_" class="st3" cx="219" cy="34.5" r="4.7"/>
					<radialGradient id="XMLID_81_" cx="158.2117" cy="60.9219" r="6.8129" gradientUnits="userSpaceOnUse">
						<stop  offset="0" style="stop-color:#1A4790"/>
						<stop  offset="1" style="stop-color:#030303"/>
					</radialGradient>
					<path id="XMLID_1554_" class="st4" d="M165,60.9c0,3.8-3,6.8-6.8,6.8c-3.8,0-6.8-3.1-6.8-6.8c0-3.8,3-6.8,6.8-6.8
						C162,54.1,165,57.2,165,60.9z"/>
					<radialGradient id="XMLID_82_" cx="158.2117" cy="60.9211" r="5.4758" gradientUnits="userSpaceOnUse">
						<stop  offset="0" style="stop-color:#1A4790"/>
						<stop  offset="9.644599e-002" style="stop-color:#1D458C"/>
						<stop  offset="0.2361" style="stop-color:#224380"/>
						<stop  offset="0.4019" style="stop-color:#273D6D"/>
						<stop  offset="0.5879" style="stop-color:#263453"/>
						<stop  offset="0.7907" style="stop-color:#1E2533"/>
						<stop  offset="1" style="stop-color:#030303"/>
					</radialGradient>
					<path id="XMLID_1553_" class="st5" d="M163.7,60.9c0,3-2.4,5.5-5.5,5.5c-3,0-5.5-2.5-5.5-5.5c0-3,2.4-5.5,5.5-5.5
						C161.2,55.4,163.7,57.9,163.7,60.9z"/>
					<linearGradient id="XMLID_83_" gradientUnits="userSpaceOnUse" x1="219.2556" y1="56.7802" x2="219.2556" y2="62.9515">
						<stop  offset="0" style="stop-color:#BDBEC0"/>
						<stop  offset="1.057113e-002" style="stop-color:#BFC0C2"/>
						<stop  offset="0.137" style="stop-color:#D8D8D9"/>
						<stop  offset="0.264" style="stop-color:#ECEBEB"/>
						<stop  offset="0.3908" style="stop-color:#F8F8F8"/>
						<stop  offset="0.5175" style="stop-color:#FFFFFF"/>
						<stop  offset="0.6278" style="stop-color:#F8F7F7"/>
						<stop  offset="0.7536" style="stop-color:#E9E9E9"/>
						<stop  offset="0.8865" style="stop-color:#D3D4D4"/>
						<stop  offset="1" style="stop-color:#BDBEC0"/>
					</linearGradient>
					<path id="XMLID_1552_" class="st6" d="M252.7,59.8c0,1.9-1.5,3.4-3.4,3.4h-60c-1.9,0-3.4-1.5-3.4-3.4l0,0
						c0-1.9,1.5-3.4,3.4-3.4h60C251.1,56.4,252.7,57.9,252.7,59.8L252.7,59.8z"/>
					<linearGradient id="XMLID_84_" gradientUnits="userSpaceOnUse" x1="219.2542" y1="57.5852" x2="219.2542" y2="62.1181">
						<stop  offset="0" style="stop-color:#959597"/>
						<stop  offset="0.5359" style="stop-color:#555252"/>
						<stop  offset="1" style="stop-color:#231F20"/>
					</linearGradient>
					<path id="XMLID_1551_" class="st7" d="M251.9,59.8c0,1.4-1.5,2.5-3.3,2.5h-58.6c-1.8,0-3.3-1.1-3.3-2.5l0,0
						c0-1.4,1.5-2.5,3.3-2.5h58.6C250.4,57.3,251.9,58.4,251.9,59.8L251.9,59.8z"/>
				</g>
				<g id="XMLID_1543_">
					<g id="XMLID_1547_">
						<defs>
							<path id="XMLID_1548_" d="M171.8,741.8c-0.1,16.7,13.4,30.4,30.1,30.5c16.7,0.1,30.3-13.4,30.3-30.2
								c0.1-16.7-13.4-30.4-30.1-30.5C185.5,711.5,171.9,725,171.8,741.8"/>
						</defs>
						<use xlink:href="#XMLID_1548_"  style="overflow:visible;fill:#F3F3F3;"/>
						<clipPath id="XMLID_85_">
							<use xlink:href="#XMLID_1548_"  style="overflow:visible;"/>
						</clipPath>
						<polygon id="XMLID_1549_" class="st8" points="249.5,767 177.1,789.6 154.6,716.9 227,694.3 						"/>
					</g>
					<g id="XMLID_1544_">
						<defs>
							<path id="XMLID_1545_" d="M174.7,741.8c-0.1,15.3,12.1,27.8,27.2,27.9c15.1,0.1,27.4-12.3,27.5-27.6
								c0.1-15.3-12.1-27.8-27.2-27.9C187.1,714.1,174.8,726.5,174.7,741.8"/>
						</defs>
						<clipPath id="XMLID_86_">
							<use xlink:href="#XMLID_1545_"  style="overflow:visible;"/>
						</clipPath>
						
							<radialGradient id="XMLID_87_" cx="-242.3788" cy="779.5875" r="1.3332" gradientTransform="matrix(20.522 9.560000e-002 9.620000e-002 -20.8117 5101.1455 16989.6387)" gradientUnits="userSpaceOnUse">
							<stop  offset="0" style="stop-color:#FAFDFD"/>
							<stop  offset="1" style="stop-color:#FDFEFF"/>
						</radialGradient>
						<polygon id="XMLID_1546_" class="st9" points="174.8,714.1 229.5,714.3 229.3,769.8 174.6,769.5 						"/>
					</g>
				</g>
			</g>
			<rect id="XMLID_1541_" x="32.8" y="103" class="st10" width="338.4" height="596.8"/>
		</g>
	</g>
	<path id="XMLID_1537_" class="st11" d="M219.6,684c0,2.1-1.7,3.8-3.8,3.8H185c-2.1,0-3.8-1.7-3.8-3.8l0,0c0-2.1,1.7-3.8,3.8-3.8
		h30.8C217.9,680.1,219.6,681.8,219.6,684L219.6,684z"/>
</g>
</svg>
