<?xml version="1.0" encoding="utf-8"?>
<!-- Generator: Adobe Illustrator 22.0.1, SVG Export Plug-In . SVG Version: 6.00 Build 0)  -->
<svg version="1.1" xmlns="http://www.w3.org/2000/svg" xmlns:xlink="http://www.w3.org/1999/xlink" x="0px" y="0px"
	 viewBox="0 0 741.5 665" style="enable-background:new 0 0 741.5 665;" xml:space="preserve">
<style type="text/css">
	.st0{display:none;}
	.st1{display:inline;}
	.st2{fill:#99D5E2;}
	.st3{fill:#69ABB2;}
	.st4{display:none;fill:#3A8589;}
	.st5{fill:#332209;}
	.st6{fill:#464B4C;}
	.st7{fill:#222626;}
	.st8{fill:#3E5660;}
	.st9{fill:#F3FEFF;}
	.st10{fill:#146666;}
	.st11{fill:url(#SVGID_1_);}
	.st12{fill:#597782;}
	.st13{fill:#FFDCB8;}
	.st14{fill:#FFFFFF;}
	.st15{fill:#303030;}
	.st16{fill:#111111;}
	.st17{fill:#5D5D5D;}
	.st18{fill:#EAEAEA;}
	.st19{fill:#212121;}
	.st20{fill:#999999;}
	.st21{fill:#353535;}
	.st22{fill:#6A939E;}
	.st23{fill:url(#SVGID_2_);}
	.st24{fill:#AFAFAF;}
	.st25{fill:#725C2B;}
	.st26{fill:#CB8F5E;}
	.st27{fill:#190F08;}
	.st28{fill:#493918;}
	.st29{fill:#DA9089;}
	.st30{fill:#753427;}
	.st31{fill:#EDBF96;}
	.st32{fill:#777777;}
	.st33{fill:#FFFCEB;}
	.st34{fill:none;stroke:#464B4C;stroke-linecap:round;stroke-miterlimit:10;}
	.st35{fill:#424E51;}
	.st36{fill:#3E899B;}
	.st37{fill:#14404C;}
	.st38{fill:#5BAEBC;}
	.st39{fill:#D8D8D8;}
	.st40{fill:#303F42;}
	.st41{fill:url(#SVGID_3_);}
	.st42{fill:#E2E2E2;}
	.st43{fill:#7E7F7F;}
	.st44{fill:#0A4F54;}
	.st45{fill:#E5E5E5;}
	.st46{fill:#141414;}
	.st47{fill:#676B6B;}
	.st48{fill:#8C4A0E;}
	.st49{fill:#C4C4C4;}
	.st50{fill:#444444;}
</style>
<g id="background" class="st0">
	<g class="st1">
		<rect x="-39" y="-42" class="st2" width="800" height="800"/>
		<rect x="-39" y="542.7" class="st3" width="800" height="215.3"/>
	</g>
</g>
<g id="Objects">
	<g>
		<ellipse class="st4" cx="356.5" cy="607.3" rx="364.5" ry="51.4"/>
		<g>
			<path class="st5" d="M364.4,607.3c0,0,31.4,10.9,35.4,13.1c4,2.2,17.4,20.3,20.7,18.9c3.3-1.5,15.6-12,17.4-24.5
				s-34.9-22.7-42.1-22c0,0-6.4-6.2-12.3-6.5c-6-0.4-14.5,0-14.5,0L364.4,607.3z"/>
			<path class="st5" d="M286.6,583.3c0,0-30.1,11.4-34.9,15.9s6.5,25.2,17.4,28.1c0,0,25.4-26.7,30.5-28.1s18.2-3.5,18.2-3.5
				S301.2,577.5,286.6,583.3z"/>
			<path class="st6" d="M295.3,537c0,0-50.9-4.6-61.8-6.8c-10.9-2.2-34.7,0-40.7,4.2c-6,4.2-4.4,21.1,0,26s171.7,53.2,182,55.4
				c0,0,11.1-16.3,9.1-31c0,0,85-5.8,91.6-15.2c6.5-9.4,0.4-32.2-8.8-34.4s-73.3,6-87.5,5.2C365,539.5,295.3,537,295.3,537z"/>
			<path class="st7" d="M233.5,544.2c0,0,105.5,26.9,149.8,33.4c0,0,0.4,3.5,0.6,7.1l-2.9-4.4C381,580.4,263,557.9,233.5,544.2z"/>
			<path class="st7" d="M449.2,547c0,0-91.5,20.7-109.3,21.2C339.9,568.2,419.4,551.9,449.2,547z"/>
		</g>
		<g>
			<g>
				<path class="st8" d="M237.9,307.4c0,0-4,4.5-2.9,9.5c1.1,5,22.2,57.7,25.9,61c3.7,3.3,13.7-1.4,14-1.5
					C275.3,376.3,237.9,307.4,237.9,307.4z"/>
				<path class="st9" d="M237.9,307.4c1.9-6.6,38.1-18.5,41.4-15.4c3.3,3.1,30,66.4,29.3,70.1c-0.6,3.7-38.3,16.8-40.9,15.7
					C265.2,376.7,237.2,309.9,237.9,307.4z"/>
				<path class="st10" d="M244.4,312.3c1.5-5.4,31.2-15.1,33.9-12.6c2.7,2.5,21.6,49.2,21.1,52.3c-0.5,3.1-31.3,13.8-33.4,12.9
					C263.7,364,243.8,314.4,244.4,312.3z"/>
				<linearGradient id="SVGID_1_" gradientUnits="userSpaceOnUse" x1="239.5739" y1="281.2823" x2="275.1463" y2="337.2564">
					<stop  offset="0" style="stop-color:#FFFFFF"/>
					<stop  offset="1" style="stop-color:#FFFFFF;stop-opacity:0"/>
				</linearGradient>
				<path class="st11" d="M244.4,312.3c1.5-5.4,31.2-15.1,33.9-12.6c2.7,2.5,21.6,49.2,21.1,52.3c-0.5,3.1-31.3,13.8-33.4,12.9
					C263.7,364,243.8,314.4,244.4,312.3z"/>
				<circle class="st12" cx="288" cy="364.9" r="3.4"/>
			</g>
			<g>
				<path class="st6" d="M240.8,339c0,0-49,50.7-45.2,85.1c3.8,34.3,50.6,77.3,122.5,6.5c0,0,10.3-14.7,5.8-21.4s-15.4,14.9-35.9,28
					s-49.4,24.1-65.7,2s4.8-54,26.9-77.6L240.8,339z"/>
				<path class="st13" d="M240.8,345.1c0,0-5.2-7-2.9-10.5c2.3-3.4,16-10,19.6-8.5c3.6,1.5-8.4,11.2-10.1,14.9
					c0,0,15.9-7.1,18.4-2.1c2.6,5-11,13.4-11,13.4s13.1-3.3,16.9,0c3.9,3.3-15.4,12.4-19,12.6c-3.6,0.2-9.1-3.9-6.5-8.2
					C246.3,356.7,238.2,350.9,240.8,345.1z"/>
			</g>
			<g>
				<g>
					<path class="st14" d="M224.6,309.1c-0.8,0-1.5-0.6-1.5-1.4c0-0.2-0.4-15.9,15.6-18.6c0.8-0.1,1.6,0.4,1.7,1.2
						c0.1,0.8-0.4,1.6-1.2,1.7c-13.4,2.3-13.1,15-13.1,15.5C226.1,308.3,225.4,309,224.6,309.1C224.6,309.1,224.6,309.1,224.6,309.1
						z"/>
				</g>
				<g>
					<path class="st14" d="M231.4,310.1c-0.8,0-1.5-0.6-1.5-1.4c-0.2-4,2-12,11.4-13.6c0.8-0.1,1.6,0.4,1.7,1.2
						c0.1,0.8-0.4,1.6-1.2,1.7c-9.1,1.5-8.9,10.1-8.9,10.5C232.9,309.4,232.2,310.1,231.4,310.1
						C231.4,310.1,231.4,310.1,231.4,310.1z"/>
				</g>
				<g>
					<path class="st14" d="M219,308.3c-0.8,0-1.5-0.6-1.5-1.4c0-0.2-0.8-20.7,20-24.5c0.8-0.1,1.6,0.4,1.7,1.2s-0.4,1.6-1.2,1.7
						c-18.3,3.3-17.6,20.6-17.6,21.4C220.6,307.6,220,308.3,219,308.3C219.1,308.3,219.1,308.3,219,308.3z"/>
				</g>
			</g>
		</g>
		<g>
			<g>
				<path class="st15" d="M554.2,372.6c0,0,1.9-23.9,3.3-24.2s55.2-2.4,60.8-0.8c0,0-0.2,20.8-1.6,25.3c0,0-7.8,1.7-10.1,0.7
					c0,0,1.1-16.6,0.2-17.4c-0.9-0.9-41.4,0.9-41.5,1.3c0,0.4-1,16-1,16S556,373.8,554.2,372.6z"/>
				<path class="st16" d="M650.5,378.9c0,0-21.9-7.2-33.4-7.8s-15.9,92.6-11.4,93.8c4.5,1.2,22.1,2.8,26.2,2.2
					C635.9,466.7,648.6,407.7,650.5,378.9z"/>
				<path class="st15" d="M517.7,376.2c0.7-1.5,97.1-9,104.5-3.8c0,0-9,87.7-16.5,92.6c0,0-61.3,8.1-91.7,3.1
					C514,468.1,507.7,399.8,517.7,376.2z"/>
				<path class="st17" d="M637.7,375.1c0,0-8.2,70.1-19.1,91.6l2.1,0.2c0,0,13.9-27.9,19.3-91.2L637.7,375.1z"/>
				<path class="st18" d="M627.2,441.4c0,0,18.9,3.6,23.5,12.1l10.7-49.1c0,0-12.5-4.9-26.1-5.8
					C635.3,398.5,629.7,427.1,627.2,441.4z"/>
				<path class="st14" d="M637.1,385c0,0-4.2,35.1-8.3,50.1l17.3,6.3c0,0,10.7-53,10.7-56.4H637.1z"/>
			</g>
			<path class="st19" d="M514,468.1c0,0,12.4,2.1,19.3,2.9c0,0,70.7,0,98.5-3.8l-30.5-7.5C601.4,459.8,523.1,468.5,514,468.1z"/>
			<g>
				<path class="st13" d="M564.3,371.9c0,0,2-18.6,1-25.7c-1-7,1.6-8,3.2-8.4s5.9,2.2,5.9,2.2s3.1-6.2,5.9-5.9c2.7,0.3,7,3,8,5
					c0,0,3.2-5.3,7.3-4.8c4.1,0.5,5.9,10.5,6.1,13.5c0.2,3-0.7,9.9-0.7,9.9s1.7,0.4,2.8,1.4c1.2,1-2.5,7.3-3.3,7.9
					c-0.8,0.6-13,7.2-15.7,7.9C582,375.6,564.3,371.9,564.3,371.9z"/>
				<path class="st6" d="M380.3,416.3c0,0,30.5,35,77.9,44.5c50.8,10.2,92.1-53.5,101.1-89.9c0,0,21.2-9.9,28.1,3.3
					c0,0-30.5,105.9-114.7,101.8c-55.4-2.7-96.4-42.9-97-51.5C375.1,415.9,371.9,410.2,380.3,416.3z"/>
			</g>
		</g>
		<g>
			<g>
				<path class="st20" d="M371.8,45.4c0,0,4.6,3.5,5.7,6c1.1,2.5-9.7,116.8-12.1,118.4c-2.4,1.6-8.2,1.8-11.8,1.6
					C350,171.2,371.8,45.4,371.8,45.4z"/>
				<path class="st21" d="M371.8,45.4c-1.1-3.8-80.1-11.4-84.9-8.6c-4.8,2.7-17,112.7-15.2,119.6s83.9,16.7,86.9,14.9
					C361.4,169.6,373.7,51.7,371.8,45.4z"/>
				<path class="st22" d="M364.4,50.9c-1-3.2-67.2-9.5-71.3-7.3c-4.1,2.3-14.3,94.6-12.8,100.4s70.4,14,72.9,12.5
					S366,56.2,364.4,50.9z"/>
				
					<linearGradient id="SVGID_2_" gradientUnits="userSpaceOnUse" x1="244.3609" y1="16.8702" x2="334.7585" y2="117.3606" gradientTransform="matrix(-0.9781 0.2081 0.2081 0.9781 614.7878 -64.6887)">
					<stop  offset="0" style="stop-color:#FFFFFF"/>
					<stop  offset="1" style="stop-color:#FFFFFF;stop-opacity:0"/>
				</linearGradient>
				<path class="st23" d="M364.8,51.5c-1.1-3.8-66.9-10.5-71.7-7.8c-4.8,2.7-14.5,93.4-12.8,100.4s69.9,14.3,72.9,12.5
					C356.2,154.8,366.7,57.8,364.8,51.5z"/>
				<circle class="st24" cx="313.6" cy="160.1" r="3.4"/>
			</g>
			<g>
				<path class="st13" d="M266,165.9c0,0,25.4-8.6,28.9-12.5c3.5-3.9-0.5-10.4-0.5-10.4s18.3-22.8,18.9-26.1
					c0.6-3.3-6.5-4.9-6.5-4.9s-15,15.3-17.4,15.8c0,0-4-6-7-5.9s-6.9,1.5-6.9,1.5s-2-2.7-5.1-3.6c-3.2-0.9-22.5,19.5-22.1,29.9
					C248.7,160.2,266,165.9,266,165.9z"/>
				<path class="st6" d="M317.7,404.9c-16-4.5-92.9-31.8-101.9-72.8c-11.8-54,17.7-112.4,55.6-164.5c0,0-8.1-25-27.6-22.5
					c0,0-73.3,112.4-48.5,187.1s128,85.5,128,85.5S327.3,407.6,317.7,404.9z"/>
			</g>
			<g>
				<path class="st13" d="M368.5,159.2c0,0-28.7-12.8-29.2-15.5c-0.6-2.7,3.1-6.2,6-5.7c2.9,0.5,14,3.1,15.8,1.1
					s10.6-16.3,11.3-23.6c0,0,10.1,11.8,5.1,35.2L368.5,159.2z"/>
				<path class="st6" d="M365.6,399.1c12.7-2.2,87.1-31.4,81.7-105.4S366.7,164,366.7,164s3.2-12.2,14.4-16.8
					c0,0,85.6,57,89.6,145.2c3.9,88.2-94,119.9-106.4,121C352,414.5,365.6,399.1,365.6,399.1z"/>
			</g>
		</g>
		<g>
			<path class="st13" d="M290.6,271.8c0,0-1.5,113.3,3.6,118c5.1,4.7,64.3,0.7,69.7-7.6c5.4-8.4,7.6-49.4,8.4-59.9
				c0.7-10.5,11.3-41.8,11.6-47.6c0.4-5.8-13.8-26.9-44.7-26.5S286.2,257.3,290.6,271.8z"/>
			<path class="st13" d="M368.6,331c0,0,1.8-14,18.2-11s10.9,24,8,27.7C391.9,351.3,366.8,368.3,368.6,331z"/>
			<path class="st25" d="M379.1,273.2c0,0-24,13.1-29,9.1s2.9-12.7,2.9-12.7s-35.2,18.2-40.3,13.5s0-11.7,0-11.7
				s-22.5,15.2-34.5,6.9s-11.3-12.7-9.4-13.8s13.4-1.1,16.3,0c0,0-17.1-8.4-13.8-27.6s26.5-19.2,24,0c0,0,2.6-34.5,28.2-34.5
				s25.6,16.3,15,26.1c0,0,47.9-4,51.6,19.6c0,0,1.5-17.1,6.2-14.9c4.7,2.2,5.1,8.7,0,17.4c0,0,14.9-5.1,18.5,3.6s1.8,12.7,0,13.1
				c-1.8,0.4-12-3.6-12-3.6s12.7,37.4-16.7,60.3l-11.6,2.5c0,0-6-5.8-5.9-18.5C368.6,295.4,376,276.8,379.1,273.2z"/>
			<path class="st26" d="M324,313.3c0,0,0,12.7-2.4,13.3c-2.4,0.5-10.2-1.5-12.3,0c-2.2,1.5-3.1,8.7,0,9.8c3.1,1.1,10.9,0,10.9,0
				s-13.1,6.7-15.1-1.5c-2-8.2,2.2-11.6,6.2-11.3c4,0.4,9.4,1.5,10-0.7C321.8,320.8,323.2,317,324,313.3z"/>
			<path class="st27" d="M335.8,313.3c0,0,6.4,9.3,18,0C353.7,313.3,342.8,329.1,335.8,313.3z"/>
			<path class="st27" d="M300,313.3c0,0,8.5,8.2,17.2,0C317.2,313.3,308.7,327.5,300,313.3z"/>
			<path class="st28" d="M335.8,289.6c0,0,15.1,0,19.1,6.7C354.8,296.3,347.9,283.4,335.8,289.6z"/>
			<path class="st28" d="M318.2,290.1c0,0-12.5-1.5-17.4,6.2C300.7,296.3,307.8,281.9,318.2,290.1z"/>
			<g>
				<path class="st29" d="M323.6,379.5c3.7,2.4,7.8,3.7,12.2,2.9c9.8-1.8,15.5-14.9,18.7-27.4C347.2,355.8,328.2,360,323.6,379.5z"
					/>
				<path class="st30" d="M302,348.6c0,0,8.6,22.5,21.6,30.9c4.6-19.5,23.6-23.7,30.9-24.5c3.2-12.3,4-24,4-24
					C353.4,332.6,302,348.6,302,348.6z"/>
			</g>
		</g>
		<g>
			<g>
				<path class="st31" d="M106.5,334.3c0,0,11,2.8,15.6,4.7c4.6,1.9,15,6.4,15,6.4s3.9,18.6,2.9,22.1c-1,3.5-19.5,6.1-19.5,6.1
					s-4.9-3.9-7.2-4.9s-7.5-14.8-7.5-14.8s14,4.7,4.1-5.5S106.5,334.3,106.5,334.3z"/>
				<g>
					<g>
						<path class="st14" d="M124.6,331c-4.6-8.2-20-8.2-20-8.2c-2.1,0.7-3.5,3.4-4.3,7.2c0.3-0.1,0.5-0.3,0.8-0.3
							c0,0,12.7,0,16.5,5.4c3.8,5.4,1.1,18.3-4.3,20.2c-3.9,1.4-10.3,0.9-13.6,0.5c0.3,3.7,0.6,6.2,0.6,6.2s12.5,2.5,19.1-0.4
							C125.9,358.7,129.2,339.1,124.6,331z"/>
					</g>
					<path class="st14" d="M60.8,307.4c0,0,38.4,1.8,44.9,3.7c0,0-3.8,62.9-5.2,64.5c-1.4,1.6-39.2,2.4-47.4-4.5
						C52.9,361.9,60.8,307.4,60.8,307.4z"/>
				</g>
				<g>
					<path class="st13" d="M106.9,334.3c0,0,14.6,6.5,15.3,9.8s-0.5,10.3-3.6,11c-3.1,0.7-16.2-8.7-16.6-11.4
						C101.6,341,103.7,334.9,106.9,334.3z"/>
					<path class="st13" d="M104.6,350.5c0,0,12.6,3.5,14.8,5.9c2.2,2.5,0.7,12.1-1.8,12.3s-13.7-2.1-15.1-3.5
						C101.1,363.8,102.3,351.9,104.6,350.5z"/>
					<path class="st13" d="M138.4,368.8c0,0,7.9-5.4,7.9-13.8s-3.9-15.9-3.9-15.9s-21.6,3.1-25.5,2.3s-1.9,10.9,2.5,11.2
						c4.4,0.3,14.2-0.5,14.2-0.5s-10.6,6.1-7.4,13C129.5,371.8,134.4,372.6,138.4,368.8z"/>
				</g>
				<g>
					<path class="st32" d="M80.7,305.2c0,0-12.3-3.8-12.3-16.1c0-9.7,13.4-7.6,12.3-15.8c-1.1-8.2-24.8-23.7,5.4-34
						c0,0-11.2,7.6-6.7,16.3c4.5,8.7,12.1,10.6,11.6,18.5C90.5,282,65.7,283.1,80.7,305.2z"/>
					<path class="st32" d="M91.1,303.7c0,0-7.4-7.3-4.1-11.1s18.2-7.1,14.9-16.1c-3.2-9-9.6-16.6,0-24.2c0,0-2.2,7.4,0,12.3
						c1.8,4.1,11.1,14.2,8,19.9C106.8,290.2,85.9,290.3,91.1,303.7z"/>
				</g>
			</g>
			<path class="st6" d="M316.5,416.1c0,0-32.7,77.7-101.3,63S145,368.3,145,368.3s-18.5-4.1-25.6,6.8c0,0,17.6,111.7,98,117.1
				c64.3,4.3,100.2-41,104.7-59.4C322.1,432.8,327.7,407.7,316.5,416.1z"/>
		</g>
		<g>
			<g>
				<path class="st33" d="M93.4,584.6c0,0,79-0.5,82.3,0v40.2c0,0-90.4,0.5-98.1,0C77.7,624.8,91.7,587.6,93.4,584.6z"/>
				<path class="st6" d="M133.2,587c0,0-3.8,7-6.3,7c-2.4,0-3.3-4.3-5.3-4.5c-2-0.2-3.2,5.7-5,4.5c-1.8-1.2-2-4.2-2-4.2
					s-1.8-0.7-2.7,0.7s-2.4-1.1-3.8-1.1s-6.4-0.7-6.4-0.7s5.9-1.7,8.1,0s2.3-0.3,4,0c1.7,0.3,1.2,3.2,3,3.7c1.8,0.4,3.3-4.7,5-4.5
					c1.7,0.2,2.4,4.6,4.8,4.7S133.2,587,133.2,587z"/>
				<line class="st34" x1="169.7" y1="621.3" x2="87.2" y2="621.3"/>
				<line class="st34" x1="169.7" y1="615.8" x2="89.2" y2="615.8"/>
				<line class="st34" x1="169.7" y1="610" x2="90.5" y2="610"/>
				<line class="st34" x1="170.8" y1="604.7" x2="92.9" y2="604.7"/>
			</g>
			<path class="st6" d="M322.1,448.8c0,0-58,70.7-131.1,89.5c-44.7,11.5-93.1,17.9-104.5,10.3s-10.7-25.8-4.9-23.5
				c5.8,2.3,56.9,9.4,105-4.9c53.1-15.7,116-59.5,124.9-75.5S322.1,448.8,322.1,448.8z"/>
			<g>
				<g>
					<path class="st35" d="M100.1,585.3c0,0,1.9,3.9,2.7,3.5c0.8-0.4,0.4-2.1-0.4-3.5S100.1,585.3,100.1,585.3z"/>
					<path class="st36" d="M61.4,505.1c0,0-3.7,2-3.7,6.4c0,4.4,2.5,11.4,6.3,15.9s6.8,8.4,5.9,10.9c-1,2.5,1,4.9,2.3,3.7
						s0.7-5.2-0.3-7.9s-7-9-8.5-14.2c-1.5-5.2,0.9-6.8,0.4-8.1C63.3,510.6,63.6,506.6,61.4,505.1z"/>
					<g>
						<path class="st37" d="M101.7,566.3C101.7,566.3,101.7,566.3,101.7,566.3c-0.8-2.3-22.4-63.2-24.7-66.2c-2.3-3-6.6-2.4-9.4-1.2
							c-3.8,1.6-7.4,2.7-6.3,6.3c1.1,3.5,21.4,60.4,25.3,65.9c0.2,0.2,0.3,0.5,0.5,0.7C91,572.6,96.7,572.3,101.7,566.3z"/>
						<path class="st38" d="M101.7,566.3c-5.1,6.1-10.8,6.3-14.5,5.5c4,5.5,10.3,14.5,12.9,15.2c0,0,2.7,0,3.2-1.4
							C103.5,584.8,102.5,568.6,101.7,566.3z"/>
					</g>
					<path class="st36" d="M62.5,485.5c-3.3,1.3-3.8,5.9-2.5,9.4c1.4,3.5,2.9,8.7,3.7,9.4c0.8,0.7,8.3-0.3,10.1-4.2c0,0-2-6-3.4-8.7
						C69,488.7,67.1,483.8,62.5,485.5z"/>
				</g>
				<g>
					<path class="st13" d="M66.3,547.1c0,0-2.4,9,2.5,10.9c4.9,1.9,16.8,0.1,19-3.2c2.2-3.3-2.7-6.8-4.6-7.7
						C81.3,546.2,66.3,547.1,66.3,547.1z"/>
					<path class="st13" d="M61.4,535.1c0,0-4.4,5.2,0,11.2c4.4,6,19.1,4.7,23,3.2c4-1.5,2.5-9.6-2.3-11.7S61.4,535.1,61.4,535.1z"/>
					<path class="st13" d="M57.3,524.9c-4,1.1-6.8,9.9,0,11.8c6.8,1.9,22.9,5.4,25.1,2.7c2.2-2.7,4.6-12.2-4.4-13.1
						C69,525.6,61.7,523.7,57.3,524.9z"/>
					<path class="st13" d="M91.6,521.5c-3,0-4.7,0.3-4.9,6.8s-0.5,17.2,4.9,18.4c5.4,1.2,7.6-4.3,7.6-10S97.6,521.5,91.6,521.5z"/>
				</g>
			</g>
		</g>
		<g>
			<g>
				<path class="st39" d="M596.4,540.5c0,0,16.7-51.6,18.6-52.9c1.9-1.4,87.1,1.6,90.4,5.2s-12,52.1-12,52.1L596.4,540.5z"/>
				<path class="st40" d="M605.9,533.9c0,0,13.2-40.8,14.8-41.9s73.4,1.4,76.2,4.4c2.8,3-9.2,41-9.2,41L605.9,533.9z"/>
				<linearGradient id="SVGID_3_" gradientUnits="userSpaceOnUse" x1="631.2714" y1="446.1675" x2="654.812" y2="526.7286">
					<stop  offset="0" style="stop-color:#FFFFFF"/>
					<stop  offset="1" style="stop-color:#FFFFFF;stop-opacity:0"/>
				</linearGradient>
				<path class="st41" d="M605.9,533.9c0,0,13.2-40.8,14.8-41.9s73.4,1.4,76.2,4.4c2.8,3-9.2,41-9.2,41L605.9,533.9z"/>
				<path class="st42" d="M526.5,548.1c0,0,0-8.5,3-11.1c0,0,88.4-0.5,92.8,0.4c0,0,0.9,10.2,0.6,12.4
					C621.3,550.5,531.2,547,526.5,548.1z"/>
				<path class="st43" d="M622.3,537.3c0,0,68.3,2.7,73,3.1c0,0,0.5,9.4,0,11.9c0,0-70-2.6-74.6-2.6
					C615,549.7,622.3,537.3,622.3,537.3z"/>
				<path class="st44" d="M510.9,605.4c0,0,0.4-55.8,1.1-58.4c0,0,93.5,1.4,111,1c0,0,73,1.5,76,1.8c0,0,0,55.5,0,58.4
					c0,0-12.3-0.7-14.5-0.4c0,0-1.8-17.1-2.9-18.9l-42.8-1.1c0,0-2.3,28.1-2.7,29.2c-0.4,1.1-15.5,0-15.5,0l-2-30.7l-89.1-2.9
					l-2.9,22.6C526.5,606.3,513.1,606.9,510.9,605.4z"/>
				<path class="st43" d="M705.4,492.7c0,0,3.5,1.4,3.5,3.9c0,2.4-11.8,49.1-13.4,53.2l-1.5-9.4C694.1,540.4,705,498.6,705.4,492.7z
					"/>
			</g>
			<g>
				<path class="st13" d="M620.1,500.8c-1.1-3.3-9.1-2.3-12.5-0.5c-4.5,2.2-15.2,10.6-15.2,10.6s-3.3-3-6.5-3.4
					c-3.3-0.4-20.3,6.7-20.3,6.7c-1.7,4.3-6.6,11,1.8,14.4c1.4,5.6,9.4,8.1,13.4,8.5c4,0.4,19.1,5.9,20.5,3c2.8-6.1-2.3-6.5-2.3-6.5
					s-10.1-0.4-10.8-4.7c-0.2-1.1,0.6-2.1,1.7-2.9c9.9-0.7,16.4,0.4,16.4,0.4s2.5,4.9,3.8,7.9c1.4,3,8.7,3.3,9.3,2.5
					c0.5-0.8,0.5-4.1,0.3-6.5s-1.4-7.9-6-8.4c-4.6-0.5-11.4-5.7-11.4-5.7c3.3-6,9.8-6,9.8-6c1.6,7.1,8.2,7.1,10.3,4.2
					C624.4,511.3,621.2,504.1,620.1,500.8z"/>
				<path class="st6" d="M368.5,421.4c-3.1-7.9,4.8-10.5,12.3-5.1c7.5,5.4,43.1,128.2,191.5,92.7c0,0,10.3,16.5-2.7,24.5
					c0,0-81.1,11.9-135.6-27.9S370.4,426.3,368.5,421.4z"/>
			</g>
		</g>
		<g>
			<path class="st6" d="M379.1,402.6c-2-6.2-44.8-7.5-64.6,1.3c0,0-10.2,101.3-14.6,115.5c-4.4,14.2-10,17.1-10,17.1
				s39.2,17.4,46.9,15.2l4.8-9.1l5.1,9.3c0,0,45-8.5,51.6-12.5c0,0-8.7-21.4-10.9-30.1S382.4,412.9,379.1,402.6z"/>
			<path class="st13" d="M332.7,385c0,0,3.6,16.7,3.1,21.8c-0.5,5.1,1.3,16.3,4.9,17.1c3.6,0.7,16-2.2,16-10.9s-2.1-26.4-2.2-30.4
				C354.5,378.5,332.7,385,332.7,385z"/>
			<path class="st45" d="M339.9,399.4c0,0,3.6,15.7,3.8,16.7c0,0,1.1-15.8,1.5-17.6l13.2,5.4c0,0,3.3,13.6,0,25.4
				s-13.8,49.7-13.8,49.7s-9.8-20.1-14.4-35.6c-4.6-15.4-7.2-35.6-6.6-37.8C324.1,403.6,339.9,399.4,339.9,399.4z"/>
			<path class="st46" d="M339.9,418.3c0,0,7.4-1.6,8.7,0c0,0,3.1,10.2,2.9,11.4c-0.2,1.3-12.3,1.1-13.6,0
				C336.7,428.6,339.9,418.3,339.9,418.3z"/>
			<path class="st46" d="M333,451.9c0,0,5.3-19.9,6-21.8s9.8,0,9.8,0s2.4,20.3,3.1,23.2c0.7,2.9-7.3,25.8-7.3,25.8
				S334.5,459.1,333,451.9z"/>
			<path class="st7" d="M344.2,486.3c0,0-0.9,41.8-1.7,49C342.5,535.4,340.8,502.5,344.2,486.3z"/>
			
				<ellipse transform="matrix(9.337071e-02 -0.9956 0.9956 9.337071e-02 -191.5368 782.6724)" class="st7" cx="334" cy="496.5" rx="4.4" ry="3"/>
			
				<ellipse transform="matrix(0.999 -4.436032e-02 4.436032e-02 0.999 -22.8237 15.3294)" class="st7" cx="334" cy="521.9" rx="3" ry="4.4"/>
			<path class="st47" d="M325.2,405c0,0,6.2,48.5,19.4,74c0,0-24.5-15.4-33-26c0,0,13.1-12,14.5-13.3c0,0-13.3-8.2-14.5-9.6
				C310.4,428.8,323.2,406.6,325.2,405z"/>
			<path class="st47" d="M356.9,399.2c0,0,20.6,19.6,22.2,24.1c0,0-16,11.1-20.7,12.3c0,0,12.5,7.1,15.6,11.6c0,0-19.8,24-29.4,31.8
				c0,0,10.7-38.6,12.3-44.2C358.5,429.3,360.1,407.3,356.9,399.2z"/>
			<path class="st14" d="M326.7,393.9l13.3,5.4c0,0-2.6,16.2-3,16.7c-0.4,0.5-14.3-7.3-14.8-8.4
				C321.6,406.7,326.7,393.9,326.7,393.9z"/>
			<path class="st14" d="M345.3,398.5c0,0,13.7-6.1,14.2-6.7c0.5-0.6,8.7,12.9,9,13.2c0.3,0.4-15,9.4-15.9,9.4
				S345.6,399.9,345.3,398.5z"/>
			<path class="st7" d="M290,536.4c0,0,34.2,15.6,46.9,15.2l4.8-9.1l5.1,9.3c0,0,37.8-6.4,51.6-12.5c0,0-41.6,15.9-53.1,16.5
				l-3.2-7.8c0,0-4.7,7.9-6.3,7.8C334.1,555.7,290,536.4,290,536.4z"/>
		</g>
		<g>
			<path class="st13" d="M560.5,289.2c0,0,15.2-15.4,17.4-21.9c2.2-6.5,0-26.1,0-26.1s-8.5-10.9-11.1-2.7
				c-2.5,8.2-19.4,33.9-19.4,33.9S555.6,287.9,560.5,289.2z"/>
			<g>
				<path class="st48" d="M581.7,216.7c0,0-35.4-28.8-76.2-16.9c0,0,39.7,70.1,41.9,78.9c0,0,48.5-16.9,63.7,0
					c0,0,35.2-39.1,62.4-43.5l-38.5-60.2C635.1,175.1,595.3,176.4,581.7,216.7z"/>
				<path class="st49" d="M581.7,212.4c0,0-32.3-27.2-67.5-21.9c0,1.4-0.9,3.2-1.6,7.1c0,0,35.4,64.8,37.6,73.6
					c0,0,45.7-13.6,61,3.3c0,0,30.5-38.1,57.7-42.5v-6.7l-33.8-54.5C635.1,170.8,595.3,172.1,581.7,212.4z"/>
				<path class="st14" d="M581.7,205.7c0,0-26.7-27.2-67.5-15.2c0,0,33.8,65.2,35.9,74.1c0,0,45.7-13.6,61,3.3
					c0,0,30.5-38.1,57.7-42.5l-33.8-61.2C635.1,164.1,595.3,165.4,581.7,205.7z"/>
				<path class="st50" d="M583.4,207.9c0,0,17.6,35,25.6,54.3C609,262.2,594.5,217.4,583.4,207.9z"/>
			</g>
			<path class="st13" d="M544.2,285.2c0,0-16.9-18-18.5-23.4s3.3-20.7,3.3-24.5c0-3.8,9.8-1.6,10.3,3.3c0.5,4.9-1.6,16.9-1.6,16.9
				s17.4,9.1,15.2,23.1C550.7,294.5,544.2,285.2,544.2,285.2z"/>
			<path class="st6" d="M373,403.1c0,0,85,27.7,167-122.6c0,0,24,2.5,26.9,7.4c0,0-81.3,147.3-192.1,126.6
				C374.8,414.5,367.6,413.8,373,403.1z"/>
		</g>
	</g>
</g>
</svg>
