<?xml version="1.0" encoding="utf-8"?>
<!-- Generator: Adobe Illustrator 22.0.1, SVG Export Plug-In . SVG Version: 6.00 Build 0)  -->
<svg version="1.1" id="Layer_1" xmlns="http://www.w3.org/2000/svg" xmlns:xlink="http://www.w3.org/1999/xlink" x="0px" y="0px"
	 viewBox="0 0 430.7 382.7" style="enable-background:new 0 0 430.7 382.7;" xml:space="preserve">
<style type="text/css">
	.st0{display:none;}
	.st1{display:inline;fill:#4FB867;}
	.st2{clip-path:url(#SVGID_2_);}
	.st3{fill:#3F9453;}
	.st4{fill:#FFAE63;}
	.st5{fill:#007E8B;}
	.st6{fill:#D19F73;}
	.st7{fill:#FFC38C;}
	.st8{fill:#096131;}
	.st9{fill:#043B1D;}
	.st10{fill:#0E8D48;}
	.st11{fill:#58EB33;}
	.st12{fill:#FFDFC2;}
	.st13{fill:#FFFFFF;}
	.st14{fill:#001F30;}
	.st15{clip-path:url(#SVGID_4_);fill:#3F9453;}
	.st16{clip-path:url(#SVGID_6_);}
	.st17{fill:#EC6D05;}
	.st18{fill:none;stroke:#006B6D;stroke-width:0.8002;stroke-miterlimit:10;}
	.st19{fill:#DD0640;}
	.st20{fill:#8ED0EB;}
	.st21{fill:#FFF59D;}
	.st22{opacity:0.11;}
	.st23{fill:#405766;}
	.st24{fill:#BAC3C9;}
	.st25{fill:#000B12;}
	.st26{fill:#FFEA30;}
	.st27{fill:#92BC21;}
	.st28{fill:#D9E4EB;}
	.st29{fill:#B3BCC2;}
	.st30{opacity:0.25;fill:#FFFFFF;enable-background:new    ;}
	.st31{clip-path:url(#SVGID_8_);}
	.st32{fill:#596470;}
	.st33{font-family:'ArialMT';}
	.st34{font-size:22.2202px;}
	.st35{fill:#4AC72B;}
	.st36{fill:#00111C;}
	.st37{fill:#D6D6D6;}
	.st38{fill:#00627D;}
</style>
<g id="BACKGROUND" class="st0">
	<rect x="-46.7" y="-117.3" class="st1" width="500" height="500"/>
</g>
<g id="OBJECTS">
	<g>
		<g>
			<defs>
				<rect id="SVGID_1_" x="-46.7" y="-117.3" width="500" height="500"/>
			</defs>
			<clipPath id="SVGID_2_">
				<use xlink:href="#SVGID_1_"  style="overflow:visible;"/>
			</clipPath>
			<g class="st2">
				<path class="st3" d="M409.3,68.8l-15.6-4.7c-1-1.5-2.7-2.6-4.6-2.9l-8.1-0.9l-6.8-2c-1-0.3-2-0.3-2.9-0.2
					c-1-0.5-2.2-0.8-3.4-0.7l-8.1,0.5l-7.1-0.8c-1-0.1-2,0-2.9,0.3c-1.1-0.4-2.3-0.4-3.5-0.1l-7.9,1.9l-7.1,0.4
					c-1.9,0.1-3.5,1-4.6,2.4l-16.1,3.8c-3.4,0.8-5.6,4.3-4.7,7.7l21.7,91.1L320,169c-2.9,1.7-3.8,5.3-2.2,8.2
					c1.7,2.9,5.3,3.8,8.2,2.2l1.7-1l-4.8,12.1c-1.2,3.1,0.3,6.5,3.3,7.8c0.9,0.3,1.8,0.5,2.6,0.4c-2.1,15.7,6.5,26.4,6.5,26.4
					L334,233c-2.4,0.8-4.9,1.8-7.6,2.9l0.3,24.1l0.1,6.4l1.4,118.8l49.8-0.6l-1.5-122.5v-2l-0.3-24.8c0,0-2.1-2.6-7.1-4.5v-3
					c0-3.4,0.8-6.7,2.2-9.8l14.9-31.5c1.6-3.5,1.3-7.6-1-10.7l-0.8-1.1l29.1-97.8C414.6,73.4,412.7,69.8,409.3,68.8z"/>
				<g>
					<path class="st4" d="M319.9,186.7L319.9,186.7c3.1,1.2,6.5-0.3,7.8-3.3l7.9-19.8l-11.1-4.4l-7.9,19.8
						C315.3,182,316.8,185.5,319.9,186.7z"/>
					<path class="st5" d="M369.9,223.7c0,0-12.1-15.1-49.8,0.6C320.1,224.3,341.8,242.5,369.9,223.7z"/>
					<rect x="340.4" y="161.9" class="st6" width="23" height="16.1"/>
					<path class="st7" d="M311.5,165.7L311.5,165.7c1.7,2.9,5.3,3.8,8.2,2.2l18.5-10.7l-6-10.4l-18.5,10.7
						C310.8,159.2,309.8,162.9,311.5,165.7z"/>
					<path class="st7" d="M365.6,145.7l13.4,18.6c2.3,3.1,2.6,7.2,1,10.7l-15,31.4c-1.5,3.1-2.2,6.4-2.2,9.8v16l-37.1,1.6l3.3-20.3
						c0,0-15.1-19-0.3-43.4l14.6-1.9c0,0,0.5,7.1,7.7,7.7C358.1,176.5,363.9,163.6,365.6,145.7z"/>
					<g>
						<g>
							<g>
								<g>
									<g>
										<g>
											<path class="st8" d="M369.9,174.3c-0.5,0-1.1-0.1-1.6-0.2l-35.2-10.5c-1.4-0.4-2.6-1.4-3.3-2.7c-0.7-1.3-0.9-2.8-0.4-4.3
												l31.3-105.1c0.7-2.4,2.9-4,5.4-4c0.5,0,1.1,0.1,1.6,0.2l35.2,10.5c1.4,0.4,2.6,1.4,3.3,2.7c0.7,1.3,0.9,2.8,0.4,4.3
												l-31.3,105.1C374.6,172.7,372.3,174.3,369.9,174.3z"/>
											<path class="st9" d="M365.9,48.2L365.9,48.2c0.5,0,0.9,0.1,1.4,0.2l35.2,10.5c1.2,0.4,2.3,1.2,2.9,2.3s0.8,2.5,0.4,3.7
												L374.5,170c-0.6,2-2.5,3.5-4.7,3.5c-0.5,0-0.9-0.1-1.4-0.2l-35.2-10.5c-2.6-0.8-4-3.5-3.3-6l31.3-105.1
												C361.9,49.7,363.8,48.2,365.9,48.2 M365.9,46.7c-2.8,0-5.3,1.8-6.1,4.6l-31.3,105.1c-1,3.4,0.9,7,4.3,8l35.2,10.5
												c0.6,0.2,1.2,0.3,1.8,0.3c2.8,0,5.3-1.8,6.1-4.6l31.3-105.1c1-3.4-0.9-7-4.3-8L367.7,47
												C367.2,46.8,366.5,46.7,365.9,46.7L365.9,46.7z"/>
										</g>
										<path class="st10" d="M373.6,164.2l25.6-86.1l2.5-8.5c-2.9-0.9-4.5-3.9-3.7-6.8l-29.1-8.7c-0.9,2.9-3.9,4.5-6.8,3.7
											l-2.5,8.5L334,152.4c2.9,0.9,4.5,3.9,3.7,6.8l29.1,8.7C367.7,165,370.7,163.3,373.6,164.2z"/>
										<path class="st8" d="M378.5,78.7c4.2,1.2,8.6-1.1,9.8-5.3c1.2-4.2-1.1-8.6-5.3-9.8c-4.2-1.2-8.6,1.1-9.8,5.3
											C372,73.1,374.3,77.4,378.5,78.7z"/>
										<path class="st8" d="M354.4,156.2c4.2,1.2,8.6-1.1,9.8-5.3c1.2-4.2-1.1-8.6-5.3-9.8c-4.2-1.2-8.6,1.1-9.8,5.3
											C347.9,150.6,350.2,155,354.4,156.2z"/>
										<path class="st11" d="M379,77c3.3,1,6.7-0.9,7.6-4.1c1-3.3-0.9-6.7-4.1-7.6c-3.3-1-6.7,0.9-7.6,4.1
											C373.9,72.6,375.8,76.1,379,77z"/>
										<path class="st11" d="M354.9,154.6c3.3,1,6.7-0.9,7.6-4.1c1-3.3-0.9-6.7-4.1-7.6c-3.3-1-6.7,0.9-7.6,4.1
											C349.8,150.2,351.7,153.6,354.9,154.6z"/>
										<path class="st8" d="M363.7,125.1c-11.6-3.4-18.9-13.2-16.4-21.8c2.6-8.6,14-12.7,25.6-9.3c11.6,3.4,18.9,13.2,16.4,21.8
											C386.7,124.4,375.3,128.5,363.7,125.1z"/>
										<path class="st11" d="M364.3,123c-10.4-3.1-17.1-11.7-14.8-19.2c2.2-7.5,12.5-11.1,22.9-8s17.1,11.7,14.8,19.2
											C385,122.5,374.7,126.1,364.3,123z"/>
										<g>
											<path class="st8" d="M366.1,107.5c0.7-1,1.4-1.9,2-2.7c0.7-0.8,1.4-1.4,2.1-1.9s1.6-0.8,2.4-0.9c0.9-0.1,1.9,0,3,0.3
												c1.7,0.5,3,1.5,3.8,2.9c0.9,1.4,1.2,3.1,1,5.2l3,0.9c0,0.2-0.1,0.6-0.1,1.1c-0.1,0.5-0.2,1-0.3,1.5
												c-0.3,1-0.7,1.7-1.2,2.1s-1.3,0.5-2.4,0.2l-0.5-0.1c-0.7,1.5-1.4,2.6-2.3,3.4s-1.8,1-2.9,0.7c-0.7-0.2-1.2-0.5-1.5-0.9
												c-0.4-0.4-0.7-0.9-0.9-1.4c0.5-0.4,1-1.1,1.6-1.9c0.5-0.8,1-1.8,1.3-2.9s0.4-2,0.3-2.6c-0.2-0.6-0.5-1-0.9-1.1
												s-0.7,0-1.1,0.2c-0.3,0.3-0.7,0.7-1.1,1.3l-1.2,1.8c-1.5,2.1-3,3.7-4.5,4.6s-3.3,1.1-5.3,0.5c-1.7-0.5-3-1.5-3.9-2.9
												s-1.2-3.3-1-5.5l-3-0.9c0-0.2,0.1-0.6,0.1-1.1c0.1-0.5,0.2-1,0.3-1.5c0.3-1,0.7-1.7,1.2-2.1c0.5-0.5,1.3-0.5,2.4-0.2
												l0.4,0.1c0.4-0.9,0.8-1.6,1.2-2.3c0.4-0.7,0.9-1.2,1.4-1.7c0.5-0.4,1-0.7,1.6-0.9c0.6-0.2,1.1-0.1,1.8,0
												c0.7,0.2,1.3,0.6,1.7,1.2c0.4,0.6,0.6,1.2,0.8,1.7c-0.8,0.5-1.5,1.3-2.2,2.1c-0.7,0.9-1.2,1.9-1.6,3.1s-0.4,2.1-0.2,2.8
												c0.2,0.6,0.6,1,1.1,1.1s0.9,0.1,1.3-0.3c0.4-0.3,0.8-0.8,1.3-1.5L366.1,107.5z"/>
										</g>
									</g>
									<g>
										<g>
											<path class="st8" d="M369.4,170.9c-0.2,0-0.4,0-0.7,0l-36.5-4.2c-1.5-0.2-2.8-0.9-3.8-2.1c-0.9-1.2-1.4-2.7-1.2-4.1
												l12.6-109c0.3-2.8,2.7-5,5.6-5c0.2,0,0.4,0,0.7,0l36.5,4.2c1.5,0.2,2.8,0.9,3.8,2.1c0.9,1.2,1.4,2.7,1.2,4.1l-12.6,109
												C374.7,168.7,372.3,170.9,369.4,170.9z"/>
											<path class="st9" d="M345.5,47.2L345.5,47.2c0.2,0,0.4,0,0.6,0l36.5,4.2c1.3,0.1,2.4,0.8,3.2,1.8c0.8,1,1.2,2.3,1,3.6
												l-12.6,109c-0.3,2.5-2.4,4.3-4.8,4.3c-0.2,0-0.4,0-0.6,0l-36.5-4.2c-1.3-0.1-2.4-0.8-3.2-1.8c-0.8-1-1.2-2.3-1-3.6
												l12.6-109C341,49.1,343,47.2,345.5,47.2 M345.5,45.7c-3.2,0-6,2.4-6.4,5.7l-12.6,109c-0.4,3.5,2.1,6.7,5.6,7.1l36.5,4.2
												c0.2,0,0.5,0,0.7,0c3.2,0,6-2.4,6.4-5.7l12.6-109c0.4-3.5-2.1-6.7-5.6-7.1l-36.5-4.2C346,45.7,345.7,45.7,345.5,45.7
												L345.5,45.7z"/>
										</g>
										<path class="st10" d="M372.3,160.2L382.6,71l1-8.8c-3-0.3-5.1-3-4.8-6l-30.2-3.5c-0.3,3-3,5.1-6,4.8l-1,8.8l-10.3,89.2
											c3,0.3,5.1,3,4.8,6l30.2,3.5C366.6,162,369.3,159.8,372.3,160.2z"/>
										<path class="st8" d="M362.3,75.1c4.3,0.5,8.2-2.6,8.7-6.9s-2.6-8.2-6.9-8.7s-8.2,2.6-8.7,6.9S358,74.6,362.3,75.1z"/>
										<path class="st8" d="M352.1,155.6c4.3,0.5,8.2-2.6,8.7-6.9c0.5-4.3-2.6-8.2-6.9-8.7s-8.2,2.6-8.7,6.9
											C344.6,151.2,347.7,155.1,352.1,155.6z"/>
										<path class="st11" d="M362.5,73.4c3.4,0.4,6.4-2,6.8-5.4s-2-6.4-5.4-6.8c-3.4-0.4-6.4,2-6.8,5.4
											C356.7,69.9,359.1,73,362.5,73.4z"/>
										<path class="st11" d="M352.2,153.9c3.4,0.4,6.4-2,6.8-5.4s-2-6.4-5.4-6.8c-3.4-0.4-6.4,2-6.8,5.4
											C346.5,150.5,348.9,153.5,352.2,153.9z"/>
										<path class="st8" d="M355.8,123.4c-12-1.4-20.9-9.7-19.9-18.6s11.6-15,23.6-13.6s20.9,9.7,19.9,18.6
											C378.3,118.7,367.8,124.7,355.8,123.4z"/>
										<path class="st11" d="M356,121.2c-10.8-1.2-18.8-8.6-17.9-16.4s10.4-13.1,21.2-11.8c10.8,1.2,18.8,8.6,17.9,16.4
											C376.3,117.1,366.8,122.4,356,121.2z"/>
										<g>
											<path class="st8" d="M355.1,105.7c0.5-1.1,1-2.1,1.5-3s1.1-1.6,1.7-2.2s1.4-1.1,2.2-1.3c0.8-0.3,1.8-0.4,3-0.2
												c1.8,0.2,3.2,0.9,4.3,2.2c1.1,1.2,1.7,2.9,1.9,5l3.2,0.4c0,0.2,0,0.6,0.1,1.1c0,0.5,0,1-0.1,1.5c-0.1,1-0.4,1.8-0.8,2.3
												s-1.2,0.7-2.3,0.6l-0.5-0.1c-0.4,1.6-1,2.8-1.7,3.7c-0.7,0.9-1.6,1.3-2.7,1.2c-0.7-0.1-1.2-0.3-1.7-0.7
												c-0.4-0.4-0.8-0.8-1.1-1.3c0.4-0.5,0.8-1.3,1.2-2.2c0.4-0.9,0.6-2,0.8-3.1c0.1-1.2,0.1-2-0.2-2.6c-0.3-0.6-0.6-0.9-1.1-1
												c-0.4,0-0.7,0.1-1,0.4s-0.6,0.8-0.9,1.4l-0.9,2c-1.1,2.4-2.3,4.1-3.6,5.3c-1.4,1.2-3.1,1.6-5.2,1.4
												c-1.8-0.2-3.2-0.9-4.3-2.2c-1.1-1.3-1.8-3-1.9-5.2l-3.1-0.4c0-0.2,0-0.6-0.1-1.1c0-0.5,0-1,0.1-1.5
												c0.1-1,0.4-1.8,0.8-2.3s1.2-0.7,2.3-0.6h0.4c0.2-0.9,0.5-1.8,0.8-2.5s0.7-1.4,1.1-1.9s0.9-0.9,1.4-1.2
												c0.5-0.3,1.1-0.3,1.7-0.3c0.8,0.1,1.4,0.4,1.9,0.9s0.8,1,1.1,1.6c-0.7,0.7-1.3,1.5-1.8,2.5s-0.9,2.1-1,3.4
												s-0.1,2.2,0.3,2.8c0.3,0.6,0.8,0.9,1.3,0.9c0.5,0.1,0.9-0.1,1.3-0.5c0.3-0.4,0.7-0.9,1-1.7L355.1,105.7z"/>
										</g>
									</g>
									<g>
										<g>
											<path class="st8" d="M331.7,169.8c-3,0-5.4-2.3-5.6-5.3L319.6,55c-0.1-1.5,0.4-3,1.4-4.1s2.4-1.8,3.9-1.9l36.7-2.2
												c0.1,0,0.2,0,0.3,0c3,0,5.4,2.3,5.6,5.3l6.6,109.5c0.2,3.1-2.2,5.8-5.3,6l-36.7,2.2C332,169.7,331.9,169.8,331.7,169.8z"
												/>
											<path class="st9" d="M361.9,47.6c2.6,0,4.7,2,4.8,4.6l6.6,109.5c0.1,1.3-0.4,2.5-1.2,3.5c-0.9,1-2,1.5-3.3,1.6L332,169
												c-0.1,0-0.2,0-0.3,0c-2.6,0-4.7-2-4.8-4.6l-6.6-109.5c-0.1-1.3,0.4-2.5,1.2-3.5s2-1.5,3.3-1.6l36.7-2.2
												C361.7,47.6,361.8,47.6,361.9,47.6 M361.9,46c-0.1,0-0.3,0-0.4,0l-36.7,2.2c-3.5,0.2-6.2,3.2-6,6.8l6.6,109.5
												c0.2,3.4,3,6,6.4,6c0.1,0,0.3,0,0.4,0l36.7-2.2c3.5-0.2,6.2-3.2,6-6.8L368.3,52C368,48.6,365.2,46,361.9,46L361.9,46z"/>
										</g>
										<path class="st10" d="M370.4,156.4L365,66.8l-0.5-8.8c-3,0.2-5.6-2.1-5.8-5.1l-30.3,1.8c0.2,3-2.1,5.6-5.1,5.8l0.5,8.8
											l5.4,89.6c3-0.2,5.6,2.1,5.8,5.1l30.3-1.8C365.1,159.2,367.3,156.6,370.4,156.4z"/>
										<path class="st8" d="M345.7,74.4c4.3-0.3,7.7-4,7.4-8.3c-0.3-4.3-4-7.7-8.3-7.4s-7.7,4-7.4,8.3
											C337.7,71.3,341.4,74.6,345.7,74.4z"/>
										<path class="st8" d="M349.6,155.5c4.3-0.3,7.7-4,7.4-8.3c-0.3-4.3-4-7.7-8.3-7.4s-7.7,4-7.4,8.3
											C341.5,152.4,345.3,155.7,349.6,155.5z"/>
										<path class="st11" d="M345.6,72.7c3.4-0.2,6-3.1,5.8-6.5s-3.1-6-6.5-5.8s-6,3.1-5.8,6.5C339.3,70.3,342.3,72.9,345.6,72.7
											z"/>
										<path class="st11" d="M349.5,153.8c3.4-0.2,6-3.1,5.8-6.5s-3.1-6-6.5-5.8s-6,3.1-5.8,6.5S346.1,154,349.5,153.8z"/>
										
											<ellipse transform="matrix(0.9982 -5.980720e-02 5.980720e-02 0.9982 -5.7727 20.9264)" class="st8" cx="346.7" cy="106.9" rx="21.9" ry="16.2"/>
										<path class="st11" d="M347.5,120.9c-10.9,0.7-20-5.2-20.5-13s7.9-14.7,18.8-15.3c10.9-0.6,20,5.2,20.5,13
											S358.4,120.2,347.5,120.9z"/>
										<g>
											<path class="st8" d="M343.9,105.7c0.3-1.2,0.7-2.2,1-3.2s0.8-1.8,1.3-2.5s1.2-1.3,2-1.7c0.8-0.4,1.7-0.7,2.9-0.7
												c1.8-0.1,3.3,0.4,4.6,1.4c1.3,1,2.2,2.5,2.8,4.6l3.2-0.2c0.1,0.2,0.2,0.6,0.3,1.1c0.1,0.5,0.2,1,0.2,1.5
												c0.1,1-0.1,1.8-0.4,2.4s-1.1,0.9-2.2,1h-0.5c-0.1,1.6-0.5,3-1,4c-0.6,1-1.4,1.6-2.5,1.6c-0.7,0-1.3-0.1-1.8-0.4
												s-0.9-0.6-1.3-1.1c0.3-0.6,0.6-1.4,0.8-2.4c0.2-1,0.3-2,0.2-3.2c-0.1-1.2-0.3-2-0.6-2.6c-0.4-0.5-0.8-0.8-1.3-0.7
												c-0.4,0-0.7,0.2-0.9,0.6c-0.2,0.4-0.4,0.9-0.6,1.6l-0.5,2.1c-0.6,2.5-1.5,4.4-2.7,5.8c-1.1,1.4-2.7,2.1-4.8,2.3
												c-1.8,0.1-3.3-0.4-4.6-1.4c-1.3-1-2.2-2.6-2.8-4.8l-3.1,0.2c-0.1-0.2-0.2-0.6-0.3-1.1c-0.1-0.5-0.2-1-0.2-1.5
												c-0.1-1,0.1-1.8,0.4-2.4s1.1-0.9,2.2-1h0.4c0-0.9,0.2-1.8,0.4-2.6c0.2-0.8,0.4-1.5,0.8-2.1c0.3-0.6,0.7-1,1.2-1.4
												c0.5-0.3,1-0.5,1.7-0.6c0.8,0,1.4,0.1,2,0.5s1,0.9,1.3,1.4c-0.5,0.8-1,1.7-1.3,2.8c-0.4,1.1-0.5,2.3-0.4,3.5
												c0.1,1.3,0.3,2.2,0.7,2.7c0.4,0.5,0.9,0.7,1.4,0.7s0.9-0.3,1.2-0.7c0.2-0.4,0.5-1,0.7-1.8L343.9,105.7z"/>
										</g>
									</g>
									<g>
										<g>
											<path class="st8" d="M331.1,173c-2.6,0-4.9-1.8-5.5-4.3L300.1,62c-0.7-3,1.2-6.1,4.2-6.8l35.7-8.5
												c0.4-0.1,0.9-0.2,1.3-0.2c2.6,0,4.9,1.8,5.5,4.3l25.5,106.7c0.7,3-1.2,6.1-4.2,6.8l-35.7,8.5
												C332,172.9,331.5,173,331.1,173z"/>
											<path class="st9" d="M341.4,47.3L341.4,47.3c2.3,0,4.2,1.5,4.7,3.7l25.5,106.7c0.6,2.6-1,5.2-3.6,5.9l-35.7,8.5
												c-0.4,0.1-0.8,0.1-1.1,0.1c-2.3,0-4.2-1.5-4.7-3.7L300.9,61.8c-0.3-1.3-0.1-2.6,0.6-3.7c0.7-1.1,1.7-1.9,3-2.2l35.7-8.5
												C340.6,47.3,341,47.3,341.4,47.3 M341.4,45.7c-0.5,0-1,0.1-1.5,0.2l-35.7,8.5c-3.4,0.8-5.6,4.3-4.7,7.7L325,168.8
												c0.7,2.9,3.3,4.9,6.2,4.9c0.5,0,1-0.1,1.5-0.2l35.7-8.5c3.4-0.8,5.6-4.3,4.7-7.7L347.6,50.7
												C346.9,47.7,344.3,45.7,341.4,45.7L341.4,45.7z"/>
										</g>
										<path class="st10" d="M367.8,153.1l-20.9-87.3l-2.1-8.6c-2.9,0.7-5.9-1.1-6.6-4l-29.5,7.1c0.7,2.9-1.1,5.9-4,6.6l2.1,8.6
											l20.9,87.3c2.9-0.7,5.9,1.1,6.6,4l29.5-7.1C363,156.7,364.9,153.8,367.8,153.1z"/>
										<path class="st8" d="M329.3,76.6c4.2-1,6.8-5.3,5.8-9.5s-5.3-6.8-9.5-5.8s-6.8,5.3-5.8,9.5
											C320.8,75,325.1,77.6,329.3,76.6z"/>
										<path class="st8" d="M347.2,155.7c4.2-1,6.8-5.3,5.8-9.5s-5.3-6.8-9.5-5.8s-6.8,5.3-5.8,9.5
											C338.7,154.1,343,156.8,347.2,155.7z"/>
										<path class="st11" d="M328.9,74.9c3.3-0.8,5.3-4.1,4.6-7.4c-0.8-3.3-4.1-5.3-7.4-4.6c-3.3,0.8-5.3,4.1-4.6,7.4
											C322.3,73.6,325.6,75.7,328.9,74.9z"/>
										<path class="st11" d="M346.8,154.1c3.3-0.8,5.3-4.1,4.6-7.4c-0.8-3.3-4.1-5.3-7.4-4.6c-3.3,0.8-5.3,4.1-4.6,7.4
											C340.2,152.8,343.5,154.9,346.8,154.1z"/>
										<path class="st8" d="M339.7,124.1c-11.8,2.8-23-2-25.1-10.7s5.8-18,17.5-20.8c11.8-2.8,23,2,25.1,10.7
											C359.3,112,351.4,121.3,339.7,124.1z"/>
										<path class="st11" d="M339.2,122c-10.6,2.5-20.6-1.6-22.4-9.2s5.3-15.9,15.8-18.4c10.6-2.5,20.6,1.6,22.4,9.2
											C356.8,111.3,349.7,119.5,339.2,122z"/>
										<g>
											<path class="st8" d="M332.9,107.8c0.1-1.2,0.3-2.3,0.4-3.3c0.2-1,0.5-1.9,0.9-2.7c0.4-0.8,0.9-1.5,1.6-2
												c0.7-0.6,1.6-1,2.7-1.2c1.7-0.4,3.3-0.2,4.8,0.6c1.4,0.8,2.6,2.1,3.5,4l3.1-0.7c0.1,0.2,0.3,0.6,0.4,1
												c0.2,0.5,0.3,1,0.5,1.5c0.2,1,0.3,1.8,0,2.5c-0.2,0.6-0.9,1.1-2,1.4l-0.5,0.1c0.2,1.6,0.1,3-0.3,4.1s-1.1,1.8-2.2,2
												c-0.7,0.2-1.3,0.1-1.8-0.1s-1-0.5-1.5-0.8c0.2-0.6,0.4-1.5,0.4-2.5s-0.1-2.1-0.3-3.2c-0.3-1.1-0.6-1.9-1.1-2.4
												c-0.4-0.5-0.9-0.6-1.4-0.5c-0.4,0.1-0.7,0.3-0.8,0.7c-0.2,0.4-0.3,0.9-0.3,1.6l-0.2,2.2c-0.2,2.6-0.7,4.6-1.6,6.2
												s-2.3,2.6-4.4,3.1c-1.7,0.4-3.3,0.2-4.8-0.6c-1.5-0.8-2.7-2.2-3.6-4.2l-3.1,0.7c-0.1-0.2-0.3-0.6-0.4-1
												c-0.2-0.5-0.3-1-0.5-1.5c-0.2-1-0.3-1.8,0-2.5c0.2-0.6,0.9-1.1,2-1.4l0.4-0.1c-0.1-0.9-0.2-1.8-0.1-2.6
												c0-0.8,0.2-1.5,0.4-2.2c0.2-0.6,0.5-1.2,1-1.6c0.4-0.4,0.9-0.7,1.5-0.8c0.7-0.2,1.4-0.1,2,0.2c0.6,0.3,1.1,0.7,1.5,1.1
												c-0.4,0.8-0.7,1.8-0.8,3c-0.2,1.1-0.1,2.3,0.2,3.5c0.3,1.2,0.7,2.1,1.2,2.5s1,0.6,1.5,0.4c0.5-0.1,0.8-0.4,1-0.9
												s0.3-1.1,0.4-1.9L332.9,107.8z"/>
										</g>
									</g>
								</g>
							</g>
						</g>
					</g>
					<path class="st7" d="M328.4,179.7h15v-45.6c0-4-3.2-7.2-7.2-7.2h-0.7c-4,0-7.2,3.2-7.2,7.2v45.6H328.4z"/>
					<path class="st12" d="M332.7,142.6h6.3c0.9,0,1.6-0.7,1.6-1.6v-7.6c0-2.4-1.9-4.3-4.3-4.3h-1c-2.4,0-4.3,1.9-4.3,4.3v7.6
						C331.2,141.9,331.9,142.6,332.7,142.6z"/>
					<path class="st13" d="M320.4,248.4l-0.3-24.1c16.5,8.4,33.2,8.1,49.8-0.6l0.3,24.8C353.5,256,336.9,256.1,320.4,248.4z"/>
					<path class="st14" d="M325.8,237.7c0-1.3,1-2.4,2.4-2.4c1.3,0,2.4,1.1,2.5,2.4c0,1.3-1,2.4-2.4,2.4
						C326.9,240.1,325.8,239,325.8,237.7z"/>
					<path class="st14" d="M325.6,246.5c0-1.3,1-2.4,2.4-2.4c1.3,0,2.4,1.1,2.5,2.4c0,1.3-1,2.4-2.4,2.4
						C326.8,249,325.7,247.9,325.6,246.5z"/>
					<path class="st13" d="M327.7,238c-0.2-0.3-0.1-0.6,0.1-0.8c0.3-0.2,0.6-0.1,0.8,0.1c0.2,0.3,0.1,0.6-0.1,0.8
						C328.3,238.4,327.9,238.3,327.7,238z"/>
					<path class="st13" d="M327.6,246.9c-0.2-0.3-0.1-0.6,0.1-0.8c0.3-0.2,0.6-0.1,0.8,0.1c0.2,0.3,0.1,0.6-0.1,0.8
						C328.1,247.2,327.8,247.2,327.6,246.9z"/>
					<path class="st14" d="M370.2,248.5v2l1.5,139.2l-49.8,0.6l-1.4-135.6l-0.1-6.4C336.9,256.1,353.5,256,370.2,248.5z"/>
				</g>
			</g>
		</g>
		<g>
			<defs>
				<rect id="SVGID_3_" x="-46.7" y="-117.3" width="500" height="500"/>
			</defs>
			<clipPath id="SVGID_4_">
				<use xlink:href="#SVGID_3_"  style="overflow:visible;"/>
			</clipPath>
			<path class="st15" d="M122.7,90.3h-2.8h-3h-0.1V76.1c0-4.5-3.6-8.1-8.1-8.1H107v-5.1c0-2.8-2.2-5-5-5h-3.5V32.2
				c0-0.4-0.3-0.7-0.7-0.7H52.5c-0.4,0-0.7,0.3-0.7,0.7v25.7h-3.5c-2.8,0-5,2.2-5,5V68h-1.7c-4.5,0-8.1,3.6-8.1,8.1v138.5
				c0,4.5,3.6,8.1,8.1,8.1c1.1,3.2,4.2,5.4,7.7,5.4h0.3l0.1,3.8l0,0l0.3,16.5l0,0l0.2,9L40.4,271c-2.3,3.1-2.6,7.2-1,10.7l14.9,31.5
				c1.5,3.1,2.2,6.4,2.2,9.8v3c-5,1.9-7.1,4.5-7.1,4.5l0,0l0,0l-0.3,24.8l0,0v2l-1,78.7h49.8l0.9-74.4l0.1-6.4l0.3-24.1
				c-2.7-1.1-5.2-2.1-7.6-2.9l-1.3-7.9c0,0,8.5-10.7,6.5-26.4c0.9,0.1,1.8-0.1,2.6-0.4c3.1-1.2,4.6-4.7,3.3-7.8L98,273.9h0.3
				l1.3,0.7c2.9,1.7,6.5,0.7,8.2-2.2c1.7-2.9,0.7-6.5-2.2-8.2l-2.8-1.6l-0.7-34.6c3.1-0.4,5.6-2.5,6.6-5.3c4.5,0,8.1-3.6,8.1-8.1
				V200h0.1h3h2.8c0.8,0,1.4-0.6,1.4-1.4V91.7C124.1,90.9,123.5,90.3,122.7,90.3z"/>
		</g>
		<g>
			<defs>
				<rect id="SVGID_5_" x="-46.7" y="-117.3" width="500" height="500"/>
			</defs>
			<clipPath id="SVGID_6_">
				<use xlink:href="#SVGID_5_"  style="overflow:visible;"/>
			</clipPath>
			<g class="st16">
				<g>
					<path class="st14" d="M94,223.9H42.3c-4.5,0-8.2-3.7-8.2-8.2v-2.2h68.2v2.2C102.2,220.2,98.6,223.9,94,223.9z"/>
					<g>
						<path class="st4" d="M92.5,289.2L92.5,289.2c-3.1,1.2-6.5-0.3-7.8-3.3L76.8,266l11.1-4.4l7.9,19.8
							C97,284.5,95.6,288,92.5,289.2z"/>
						<path class="st5" d="M42.5,326.2c0,0,12.1-15.1,49.8,0.6C92.2,326.8,70.6,344.9,42.5,326.2z"/>
						<rect x="49.1" y="264.4" class="st6" width="23" height="16.1"/>
						<path class="st7" d="M100.9,268.2L100.9,268.2c-1.7,2.9-5.3,3.8-8.2,2.2l-18.5-10.7l6-10.4L98.7,260
							C101.6,261.7,102.5,265.3,100.9,268.2z"/>
						<path class="st7" d="M46.8,248.2l-13.4,18.6c-2.3,3.1-2.6,7.2-1,10.7L47.3,309c1.5,3.1,2.2,6.4,2.2,9.8v16l37.1,1.6L83.4,316
							c0,0,15.1-19,0.3-43.4l-14.6-1.9c0,0-0.5,7.1-7.7,7.7C54.2,278.9,48.5,266,46.8,248.2z"/>
						<g>
							<path class="st17" d="M43.5,266l-1.6-75.8c-0.1-2.6,2-4.7,4.5-4.7l43.3-0.9c2.6-0.1,4.7,2,4.7,4.5l1.6,75.8
								c0.1,2.6-2,4.7-4.5,4.7l-43.3,0.9C45.6,270.6,43.5,268.5,43.5,266z"/>
							<path class="st14" d="M83.7,204.7l-0.2-8.8c0-0.7,0.5-1.2,1.2-1.2l0,0c0.7,0,1.2,0.5,1.2,1.2l0.2,8.8c0,0.7-0.5,1.2-1.2,1.2
								l0,0C84.3,205.9,83.8,205.3,83.7,204.7z"/>
							<path class="st14" d="M84.9,258.7l-0.5-26c0-0.7,0.5-1.2,1.2-1.2l0,0c0.7,0,1.2,0.5,1.2,1.2l0.5,26c0,0.7-0.5,1.2-1.2,1.2
								l0,0C85.4,259.9,84.9,259.3,84.9,258.7z"/>
							<path class="st14" d="M71,207.3l-0.2-11.1c0-0.7,0.5-1.3,1.2-1.3l3.3-0.1c0.7,0,1.3,0.5,1.3,1.2l0.2,11.1
								c0,0.7-0.5,1.3-1.2,1.3l-3.3,0.1C71.6,208.5,71,208,71,207.3z"/>
							<path class="st14" d="M71.3,224.1L71.1,213c0-0.7,0.5-1.3,1.2-1.3l3.3-0.1c0.7,0,1.3,0.5,1.3,1.2l0.2,11.1
								c0,0.7-0.5,1.3-1.2,1.3l-3.3,0.1C71.9,225.3,71.4,224.8,71.3,224.1z"/>
							<path class="st14" d="M71.7,240.9l-0.2-11.1c0-0.7,0.5-1.3,1.2-1.3l3.3-0.1c0.7,0,1.3,0.5,1.3,1.2l0.2,11.1
								c0,0.7-0.5,1.3-1.2,1.3l-3.3,0.1C72.3,242.1,71.7,241.6,71.7,240.9z"/>
							<path class="st18" d="M72,257.7l-0.2-11.1c0-0.7,0.5-1.3,1.2-1.3l3.3-0.1c0.7,0,1.3,0.5,1.3,1.2l0.2,11.1
								c0,0.7-0.5,1.3-1.2,1.3l-3.3,0.1C72.6,258.9,72.1,258.4,72,257.7z"/>
							<g>
								<path class="st19" d="M54.3,256c-0.9,0-1.7-0.8-1.7-1.7l-0.2-10.8c0-1,0.7-1.8,1.7-1.8l7.5-0.2c1,0,1.8,0.8,1.8,1.7
									l0.2,10.8c0,0.5-0.2,0.9-0.5,1.2s-0.8,0.5-1.2,0.5L54.3,256z"/>
								<path class="st13" d="M61.6,242.2c0.7,0,1.2,0.5,1.2,1.2l0.2,10.8c0,0.7-0.5,1.2-1.2,1.2l-7.5,0.2l0,0
									c-0.7,0-1.2-0.5-1.2-1.2l-0.2-10.8c0-0.7,0.5-1.2,1.2-1.2L61.6,242.2L61.6,242.2 M61.6,241.1L61.6,241.1L61.6,241.1
									l-7.5,0.2c-1.3,0-2.3,1.1-2.2,2.3l0.2,10.8c0,1.2,1.1,2.2,2.3,2.2l7.5-0.2c1.3,0,2.3-1.1,2.2-2.3l-0.2-10.8
									C63.8,242.1,62.8,241.1,61.6,241.1L61.6,241.1z"/>
							</g>
							<path class="st20" d="M54.6,199.6c2.4,0,4.5,1.2,5.6,3.1c0.5-1,0.9-2.1,0.8-3.3c-0.1-3.6-3-6.4-6.6-6.3
								c-3.6,0.1-6.4,3-6.3,6.6c0,1.2,0.4,2.3,1,3.2C50.1,201,52.2,199.7,54.6,199.6z"/>
							<path class="st19" d="M61.2,206c0-1.2-0.4-2.3-1-3.2c-1.1,1.9-3.1,3.3-5.5,3.3s-4.5-1.2-5.6-3.1c-0.5,1-0.9,2.1-0.8,3.3
								c0.1,3.6,3,6.4,6.6,6.3C58.4,212.5,61.2,209.5,61.2,206z"/>
							<path class="st21" d="M54.7,206.1c2.4,0,4.4-1.4,5.5-3.3c-1.2-1.9-3.2-3.2-5.6-3.1c-2.4,0-4.4,1.4-5.5,3.3
								C50.2,204.9,52.3,206.1,54.7,206.1z"/>
							<g class="st22">
								<polygon class="st13" points="43,244.2 68.9,270.1 84.7,269.8 42.7,227.7 								"/>
								<path class="st13" d="M46.4,185.5c-2.6,0.1-4.6,2.2-4.5,4.7l0.2,11.8l53.7,53.7l-0.6-26.5l-43.9-43.9L46.4,185.5z"/>
								<polygon class="st13" points="63.7,185.1 95,216.3 94.7,204.6 75,184.9 								"/>
							</g>
						</g>
						<path class="st7" d="M84,282.2H69v-45.6c0-4,3.2-7.2,7.2-7.2h0.7c4,0,7.2,3.2,7.2,7.2L84,282.2L84,282.2z"/>
						<path class="st12" d="M79.6,245.1h-6.3c-0.9,0-1.6-0.7-1.6-1.6v-7.6c0-2.4,1.9-4.3,4.3-4.3h1c2.4,0,4.3,1.9,4.3,4.3v7.6
							C81.2,244.4,80.5,245.1,79.6,245.1z"/>
						<path class="st13" d="M91.9,350.9l0.3-24.1c-16.5,8.4-33.2,8.1-49.8-0.6L42.2,351C58.9,358.5,75.5,358.6,91.9,350.9z"/>
						<path class="st14" d="M86.6,340.1c0-1.3-1-2.4-2.4-2.4c-1.3,0-2.4,1.1-2.5,2.4c0,1.3,1,2.4,2.4,2.4
							C85.5,342.6,86.6,341.5,86.6,340.1z"/>
						<path class="st14" d="M86.7,349c0-1.3-1-2.4-2.4-2.4c-1.3,0-2.4,1.1-2.5,2.4c0,1.3,1,2.4,2.4,2.4S86.7,350.3,86.7,349z"/>
						<path class="st13" d="M84.7,340.5c0.2-0.3,0.1-0.6-0.1-0.8c-0.3-0.2-0.6-0.1-0.8,0.1c-0.2,0.3-0.1,0.6,0.1,0.8
							C84.1,340.8,84.5,340.8,84.7,340.5z"/>
						<path class="st13" d="M84.8,349.3c0.2-0.3,0.1-0.6-0.1-0.8c-0.3-0.2-0.6-0.1-0.8,0.1c-0.2,0.3-0.1,0.6,0.1,0.8
							C84.2,349.7,84.6,349.6,84.8,349.3z"/>
						<path class="st14" d="M90.9,431.7l0.9-74.4l0.1-6.4c-16.4,7.7-33,7.6-49.8,0.1v2l-1,78.7H90.9z"/>
					</g>
					<path class="st23" d="M101.7,218.5H34.6c-4.5,0-8.1-3.6-8.1-8.1V71.9c0-4.5,3.6-8.1,8.1-8.1h67.1c4.5,0,8.1,3.6,8.1,8.1v138.5
						C109.8,214.9,106.2,218.5,101.7,218.5z"/>
					<path class="st14" d="M94.8,213.5H41.5c-2.5,0-4.5-2-4.5-4.5v-63.4c0-2.5,2-4.5,4.5-4.5h53.4c2.5,0,4.5,2,4.5,4.5V209
						C99.3,211.5,97.3,213.5,94.8,213.5z"/>
					<path class="st14" d="M95,134.1H41.3c-2.8,0-5-2.2-5-5V58.7c0-2.8,2.2-5,5-5H95c2.8,0,5,2.2,5,5V129
						C100,131.8,97.8,134.1,95,134.1z"/>
					<path class="st20" d="M90.8,119.5H45.5c-1.2,0-2.3-1-2.3-2.3V78.6c0-1.2,1-2.3,2.3-2.3h45.4c1.2,0,2.3,1,2.3,2.3v38.6
						C93.1,118.5,92.1,119.5,90.8,119.5z"/>
					<g>
						<path class="st24" d="M52.4,129.5h-6.8c-0.5,0-0.9-0.4-0.9-0.9v-3.7c0-0.5,0.4-0.9,0.9-0.9h6.8c0.5,0,0.9,0.4,0.9,0.9v3.7
							C53.3,129.1,52.9,129.5,52.4,129.5z"/>
						<path class="st24" d="M65.2,129.5h-6.8c-0.5,0-0.9-0.4-0.9-0.9v-3.7c0-0.5,0.4-0.9,0.9-0.9h6.8c0.5,0,0.9,0.4,0.9,0.9v3.7
							C66,129.1,65.6,129.5,65.2,129.5z"/>
						<path class="st24" d="M77.9,129.5h-6.8c-0.5,0-0.9-0.4-0.9-0.9v-3.7c0-0.5,0.4-0.9,0.9-0.9h6.8c0.5,0,0.9,0.4,0.9,0.9v3.7
							C78.8,129.1,78.4,129.5,77.9,129.5z"/>
						<path class="st24" d="M90.7,129.5h-6.8c-0.5,0-0.9-0.4-0.9-0.9v-3.7c0-0.5,0.4-0.9,0.9-0.9h6.8c0.5,0,0.9,0.4,0.9,0.9v3.7
							C91.5,129.1,91.2,129.5,90.7,129.5z"/>
					</g>
					<path class="st25" d="M92.4,70.6H43.7c-0.6,0-1.1-0.5-1.1-1.1v-2.7c0-0.6,0.5-1.1,1.1-1.1h48.6c0.6,0,1.1,0.5,1.1,1.1v2.7
						C93.5,70.1,93,70.6,92.4,70.6z"/>
					<path class="st23" d="M115.7,195.8h-7.1V86h7.1c0.8,0,1.4,0.6,1.4,1.4v106.9C117.2,195.2,116.5,195.8,115.7,195.8z"/>
					<rect x="109.9" y="86" class="st14" width="3" height="109.8"/>
					<g>
						<path class="st24" d="M54,156H43.2c-0.8,0-1.5-0.7-1.5-1.5v-7.1c0-0.8,0.7-1.5,1.5-1.5H54c0.8,0,1.5,0.7,1.5,1.5v7.1
							C55.5,155.3,54.8,156,54,156z"/>
						<path class="st24" d="M73.6,156H62.7c-0.8,0-1.5-0.7-1.5-1.5v-7.1c0-0.8,0.7-1.5,1.5-1.5h10.8c0.8,0,1.5,0.7,1.5,1.5v7.1
							C75,155.3,74.4,156,73.6,156z"/>
						<path class="st24" d="M93.1,156H82.3c-0.8,0-1.5-0.7-1.5-1.5v-7.1c0-0.8,0.7-1.5,1.5-1.5h10.8c0.8,0,1.5,0.7,1.5,1.5v7.1
							C94.5,155.3,93.9,156,93.1,156z"/>
						<path class="st24" d="M53.4,169h-9.5c-1.2,0-2.1-0.9-2.1-2.1v-5.8c0-1.2,0.9-2.1,2.1-2.1h9.5c1.2,0,2.1,0.9,2.1,2.1v5.8
							C55.5,168,54.6,169,53.4,169z"/>
						<path class="st24" d="M72.9,169h-9.5c-1.2,0-2.1-0.9-2.1-2.1v-5.8c0-1.2,0.9-2.1,2.1-2.1h9.5c1.2,0,2.1,0.9,2.1,2.1v5.8
							C75,168,74.1,169,72.9,169z"/>
						<path class="st24" d="M92.4,169h-9.5c-1.2,0-2.1-0.9-2.1-2.1v-5.8c0-1.2,0.9-2.1,2.1-2.1h9.5c1.2,0,2.1,0.9,2.1,2.1v5.8
							C94.5,168,93.6,169,92.4,169z"/>
						<path class="st24" d="M53.3,182H44c-1.2,0-2.2-1-2.2-2.2v-5.6c0-1.2,1-2.2,2.2-2.2h9.4c1.2,0,2.2,1,2.2,2.2v5.6
							C55.5,181,54.5,182,53.3,182z"/>
						<path class="st24" d="M72.8,182h-9.4c-1.2,0-2.2-1-2.2-2.2v-5.6c0-1.2,1-2.2,2.2-2.2h9.4c1.2,0,2.2,1,2.2,2.2v5.6
							C75,181,74,182,72.8,182z"/>
						<path class="st24" d="M92.3,182H83c-1.2,0-2.2-1-2.2-2.2v-5.6c0-1.2,1-2.2,2.2-2.2h9.4c1.2,0,2.2,1,2.2,2.2v5.6
							C94.5,181,93.5,182,92.3,182z"/>
						<path class="st24" d="M53.9,195H43.4c-0.9,0-1.6-0.7-1.6-1.6v-6.7c0-0.9,0.7-1.6,1.6-1.6h10.4c0.9,0,1.6,0.7,1.6,1.6v6.7
							C55.5,194.2,54.8,195,53.9,195z"/>
						<path class="st24" d="M73.4,195H62.9c-0.9,0-1.6-0.7-1.6-1.6v-6.7c0-0.9,0.7-1.6,1.6-1.6h10.4c0.9,0,1.6,0.7,1.6,1.6v6.7
							C75,194.2,74.3,195,73.4,195z"/>
						<path class="st24" d="M92.9,195H82.4c-0.9,0-1.6-0.7-1.6-1.6v-6.7c0-0.9,0.7-1.6,1.6-1.6h10.4c0.9,0,1.6,0.7,1.6,1.6v6.7
							C94.5,194.2,93.8,195,92.9,195z"/>
					</g>
					<g>
						<path class="st19" d="M53.9,208h-3.7c-4.6,0-8.4-3.8-8.4-8.4l0,0c0-0.9,0.7-1.6,1.6-1.6h10.5c0.9,0,1.6,0.7,1.6,1.6v6.8
							C55.5,207.3,54.8,208,53.9,208z"/>
						<path class="st26" d="M73.4,208H62.9c-0.9,0-1.6-0.7-1.6-1.6v-6.8c0-0.9,0.7-1.6,1.6-1.6h10.5c0.9,0,1.6,0.7,1.6,1.6v6.8
							C75,207.3,74.3,208,73.4,208z"/>
						<path class="st27" d="M86.1,208h-3.7c-0.9,0-1.6-0.7-1.6-1.6v-6.8c0-0.9,0.7-1.6,1.6-1.6h10.5c0.9,0,1.6,0.7,1.6,1.6l0,0
							C94.5,204.2,90.8,208,86.1,208z"/>
					</g>
					<g>
						<path class="st28" d="M90.8,68.1H45.5c-0.4,0-0.7-0.3-0.7-0.7V27.9c0-0.4,0.3-0.7,0.7-0.7h45.3c0.4,0,0.7,0.3,0.7,0.7v39.5
							C91.5,67.8,91.2,68.1,90.8,68.1z"/>
						<g>
							<rect x="49" y="31.6" class="st29" width="18.4" height="1.4"/>
							<rect x="80.3" y="30.9" class="st29" width="7.6" height="1.4"/>
							<rect x="80.3" y="34.4" class="st29" width="7.6" height="1.4"/>
							<rect x="80.3" y="37.9" class="st29" width="7.6" height="1.4"/>
							<rect x="80.3" y="41.3" class="st29" width="7.6" height="1.4"/>
							<rect x="80.3" y="44.8" class="st29" width="7.6" height="1.4"/>
							<rect x="80.3" y="48.3" class="st29" width="7.6" height="1.4"/>
							<rect x="49" y="41.2" class="st29" width="18.4" height="1.4"/>
							<rect x="49" y="45.7" class="st29" width="18.4" height="1.4"/>
							<rect x="49" y="59.5" class="st29" width="18.4" height="1.4"/>
							<rect x="49" y="35.8" class="st29" width="23.1" height="1.4"/>
							<rect x="49" y="55.3" class="st29" width="23.1" height="1.4"/>
						</g>
					</g>
					<polygon class="st30" points="53.6,76.4 43.2,86.8 43.2,100.5 67.3,76.4 					"/>
					<polygon class="st30" points="70.3,119.5 80.3,119.5 93.1,106.7 93.1,96.7 					"/>
					<path class="st30" d="M93.1,78.6c0-1.2-1-2.3-2.3-2.3h-4L44.1,119c0.4,0.3,0.8,0.4,1.3,0.4h13.5l34.2-34.2
						C93.1,85.2,93.1,78.6,93.1,78.6z"/>
				</g>
			</g>
		</g>
		<g>
			<defs>
				<rect id="SVGID_7_" x="-46.7" y="-117.3" width="500" height="500"/>
			</defs>
			<clipPath id="SVGID_8_">
				<use xlink:href="#SVGID_7_"  style="overflow:visible;"/>
			</clipPath>
			<g class="st31">
				<path class="st3" d="M248.2,47.4h-57.6c-2.3,0-4.1,1.8-4.1,4.1v115.7c0,2.3,1.8,4.1,4.1,4.1h2.9l-0.2,22.9v1.6v3.3
					c0,0.7-0.8,1-1.3,0.5l-12.4-12.4c-2.4-2.4-6.8-2-9.7,0.9l-0.6,0.6c-2.9,2.9-3.3,7.3-0.8,9.8l24.6,24.6l3.3,3.3
					c2.4,2.4,3.7,5.6,3.6,9l0.8,5.7c-0.6,0.6-1,1.5-0.9,2.4c0,0.6,0.2,1.1,0.5,1.6c-4.8,2.1-6.7,4.6-6.7,4.6l0.1,29.9l0.1,112.4
					h55.5l-0.1-108.4l-0.1-34c-2.1-0.8-4.1-1.6-6-2.2c-0.1-0.7-0.2-1.4-0.4-2.1c0.6-0.6,0.9-1.5,0.9-2.4c0-1.3-0.7-2.3-1.8-2.9
					c-0.3-1.8-0.4-3.6-0.5-5.4c-0.1-4.7,2.8-7.7,4.4-11.9c1.8-4.9,0.7-10.3,0.8-15.3c0-4.7,0.1-9.3,0.1-14c0,0,0.1-19.4,0.2-22.1
					h1.3c2.3,0,4.1-1.8,4.1-4.1V51.5C252.3,49.2,250.5,47.4,248.2,47.4z M206.9,171.3c0,0.1,0,0.2,0,0.3V171.3L206.9,171.3z
					 M222,288.2c1.2,0.1,2.3,0.1,3.5,0.2C224.4,288.3,223.2,288.2,222,288.2z M220.2,171.4C220.2,171.4,220.2,171.3,220.2,171.4
					L220.2,171.4C220.2,171.3,220.2,171.4,220.2,171.4z"/>
				<g>
					<path class="st14" d="M241.9,159.9h-57.6c-2.3,0-4.1-1.8-4.1-4.1V40.1c0-2.3,1.8-4.1,4.1-4.1h57.6c2.3,0,4.1,1.8,4.1,4.1v115.7
						C246,158.1,244.2,159.9,241.9,159.9z"/>
					<path class="st20" d="M238.2,140.2H188c-1.5,0-2.7-1.2-2.7-2.7v-87c0-1.5,1.2-2.7,2.7-2.7h50.2c1.5,0,2.7,1.2,2.7,2.7v87
						C240.9,138.9,239.7,140.2,238.2,140.2z"/>
					<g>
						<path class="st32" d="M218,44.1h-20.1c-0.9,0-1.5-0.7-1.5-1.5l0,0c0-0.9,0.7-1.5,1.5-1.5H218c0.9,0,1.5,0.7,1.5,1.5l0,0
							C219.5,43.4,218.8,44.1,218,44.1z"/>
						<path class="st32" d="M229.8,42.5c0-1.1-0.9-1.9-1.9-1.9c-1.1,0-1.9,0.9-1.9,1.9c0,1.1,0.9,1.9,1.9,1.9
							C229,44.5,229.8,43.6,229.8,42.5z"/>
					</g>
					<g>
						<path class="st32" d="M219.8,149.5c0-3.7-3-6.8-6.8-6.8c-3.7,0-6.8,3-6.8,6.8s3,6.8,6.8,6.8S219.8,153.2,219.8,149.5z"/>
						<path class="st32" d="M237,152h-11.9c-0.6,0-1.1-0.5-1.1-1.1V148c0-0.6,0.5-1.1,1.1-1.1H237c0.6,0,1.1,0.5,1.1,1.1v2.9
							C238.1,151.6,237.7,152,237,152z"/>
						<path class="st32" d="M201,152h-11.9c-0.6,0-1.1-0.5-1.1-1.1V148c0-0.6,0.5-1.1,1.1-1.1H201c0.6,0,1.1,0.5,1.1,1.1v2.9
							C202.1,151.6,201.6,152,201,152z"/>
					</g>
					<path class="st19" d="M232.8,122.9h-39.3c-1.6,0-3-1.3-3-3v-14.3c0-1.6,1.3-3,3-3h39.3c1.6,0,3,1.3,3,3v14.3
						C235.7,121.6,234.4,122.9,232.8,122.9z"/>
					<text transform="matrix(1 0 0 1 199.9673 120.6251)" class="st13 st33 st34">pay</text>
					<g>
						<path class="st35" d="M225.1,89.6H201c-1.8,0-3.2-1.4-3.2-3.2v-24c0-1.8,1.4-3.2,3.2-3.2h24.1c1.8,0,3.2,1.4,3.2,3.2v24.1
							C228.3,88.2,226.9,89.6,225.1,89.6z"/>
						<g>
							<path class="st13" d="M222.6,66c-1-0.8-2.4-0.7-3.2,0.2L211,76c-0.5,0.6-1.4,0.6-1.9,0l-2.3-2.5c-1-1.1-2.7-1-3.6,0.3
								c-0.6,0.9-0.4,2,0.3,2.8l5.7,6.3c0.5,0.6,1.4,0.5,1.9,0l11.7-13.7C223.6,68.3,223.5,66.8,222.6,66z"/>
						</g>
					</g>
					<polygon class="st30" points="207.8,47.7 185.2,70.3 185.2,88.3 225.8,47.7 					"/>
					<polygon class="st30" points="240.9,92.2 192.9,140.2 206.2,140.2 240.9,105.5 					"/>
					<path class="st30" d="M240.9,50.4c0-0.7-0.3-1.3-0.7-1.8l-55,55v25.2l55.7-55.7V50.4z"/>
					<path class="st19" d="M187.4,238.4c0,0,13.2-17.1,55.5-0.1C242.9,238.3,219.1,258.8,187.4,238.4z"/>
					<path class="st7" d="M234.3,153.3h-0.7c-3.5,0.1-6.3,2.9-6.4,6.5c0-3.5-2.8-6.3-6.3-6.3h-0.7c-3.5,0.1-6.3,2.9-6.4,6.5
						c0-3.5-2.8-6.3-6.3-6.3h-0.7c-3.5,0.1-6.3,2.9-6.4,6.5l0.3-33c0-3.5-2.8-6.3-6.3-6.3h-0.7c-3.5,0.1-6.3,2.9-6.4,6.5l-0.4,55.5
						v1.6v3.3c0,0.7-0.8,1-1.3,0.5L173.4,176c-2.4-2.4-6.8-2-9.7,0.9l-0.6,0.6c-2.9,2.9-3.3,7.3-0.8,9.8l24.6,24.6l3.3,3.3
						c2.4,2.4,3.7,5.6,3.6,9l4,27.7l41.3-0.6c-0.6-4.3-1.2-8.6-1.8-13c-0.7-4.9-2-10-2.1-15c-0.1-4.7,2.8-7.7,4.4-11.9
						c1.8-4.9,0.7-10.3,0.8-15.3c0-4.7,0.1-9.3,0.1-14l0.2-22.5C240.6,156.1,237.8,153.3,234.3,153.3z"/>
					<path class="st12" d="M189.7,131.3v-1.7c0-3.5,1.9-6.4,4.3-6.4h0.5c2.3,0,4.2,2.8,4.2,6.3v1.8H189.7z"/>
					<path class="st36" d="M243,272.3l-0.1-34c-18.3,9.6-36.9,9.6-55.5,0.1l0.1,29.9C206.6,278,225.2,279.8,243,272.3z"/>
					<path class="st37" d="M236.8,253.2c0-1.5-1.2-2.7-2.7-2.7s-2.7,1.3-2.7,2.8s1.2,2.7,2.7,2.7S236.8,254.7,236.8,253.2z"/>
					<path class="st37" d="M237.1,263.1c0-1.5-1.2-2.7-2.7-2.7s-2.7,1.3-2.7,2.8s1.2,2.7,2.7,2.7
						C235.9,265.8,237.1,264.6,237.1,263.1z"/>
					<path class="st14" d="M243.1,400.7L243,272.3c-17.8,7.6-36.4,5.7-55.5-4l0.1,132.4L243.1,400.7L243.1,400.7z"/>
					<path class="st36" d="M235.2,263.7c0.3-0.4,0.2-1-0.2-1.3s-1-0.2-1.3,0.2c-0.3,0.4-0.2,1,0.2,1.3
						C234.3,264.2,234.9,264.1,235.2,263.7z"/>
					<path class="st12" d="M168.5,191.1l-1.5-1.5c-3.1-3.1-4-7.5-1.8-9.6l0.4-0.4c2.1-2.2,6.4-1.4,9.6,1.8l1.6,1.6L168.5,191.1z"/>
					<path class="st36" d="M235,253.9c0.3-0.5,0.2-1.1-0.3-1.4c-0.5-0.3-1.1-0.2-1.4,0.3c-0.3,0.5-0.2,1.1,0.3,1.4
						C234,254.4,234.6,254.3,235,253.9z"/>
					<path class="st36" d="M200.4,232c0-1.9-1.6-3.3-3.4-3.3c-1.9,0-3.3,1.6-3.3,3.4c0,1.9,1.6,3.3,3.4,3.3
						C198.9,235.4,200.4,233.9,200.4,232z"/>
					<path class="st36" d="M206.5,232.9c0-1.9-1.6-3.3-3.4-3.3c-1.9,0-3.3,1.6-3.3,3.4c0,1.9,1.6,3.3,3.4,3.3
						C205.1,236.3,206.6,234.7,206.5,232.9z"/>
					<path class="st36" d="M212.8,233.6c0-1.9-1.6-3.3-3.4-3.3c-1.9,0-3.3,1.6-3.3,3.4c0,1.9,1.6,3.3,3.4,3.3
						S212.9,235.5,212.8,233.6z"/>
					<ellipse class="st38" cx="215.6" cy="233.6" rx="3.4" ry="3.4"/>
					<path class="st36" d="M225,233.4c0-1.9-1.6-3.3-3.4-3.3c-1.9,0-3.3,1.6-3.3,3.4c0,1.9,1.6,3.3,3.4,3.3
						C223.5,236.8,225,235.2,225,233.4z"/>
					<path class="st36" d="M231.3,232.3c0-1.9-1.6-3.3-3.4-3.3c-1.9,0-3.3,1.6-3.3,3.4c0,1.9,1.6,3.3,3.4,3.3
						C229.9,235.7,231.3,234.2,231.3,232.3z"/>
					<path class="st36" d="M237.4,231.5c0-1.9-1.6-3.3-3.4-3.3c-1.9,0-3.3,1.6-3.3,3.4c0,1.9,1.6,3.3,3.4,3.3
						C236,234.9,237.5,233.4,237.4,231.5z"/>
				</g>
			</g>
		</g>
	</g>
</g>
<g id="DESIGNED_BY_FREEPIK.COM">
</g>
</svg>
