<?xml version="1.0" encoding="utf-8"?>
<!-- Generator: Adobe Illustrator 22.0.1, SVG Export Plug-In . SVG Version: 6.00 Build 0)  -->
<svg version="1.1" xmlns="http://www.w3.org/2000/svg" xmlns:xlink="http://www.w3.org/1999/xlink" x="0px" y="0px"
	 viewBox="0 0 5000 5000" style="enable-background:new 0 0 5000 5000;" xml:space="preserve">
<style type="text/css">
	.st0{display:none;}
	.st1{display:inline;fill:#6F8B9E;}
	.st2{fill:#FFC295;}
	.st3{fill:#D8D8D8;}
	.st4{fill:#E2E5E7;}
	.st5{fill:#E35E63;}
	.st6{fill:#6C7D8D;}
	.st7{fill:#848C99;}
	.st8{fill:#838B99;}
	.st9{fill:#D7DAE1;}
	.st10{fill:#F4B387;}
	.st11{fill:#FEE2CA;}
	.st12{fill:#FFFEFD;}
	.st13{fill:#323E49;}
	.st14{fill:#3D4D5C;}
	.st15{fill:#E88725;}
	.st16{fill:#F0B919;}
	.st17{fill:#F0E496;}
	.st18{fill:#D9393E;}
	.st19{fill:#DDBF9A;}
	.st20{fill:#2D3538;}
</style>
<g id="Layer_1" class="st0">
	<rect class="st1" width="5000" height="5000"/>
</g>
<g id="Layer_2">
	<path class="st2" d="M2578.3,2858.2c-0.3,4.2-0.4,8.2-0.7,12.2c-0.6,9.9-1.4,19.7-4.5,32.8c0,0-18.5,81.7-55.1,109.7
		c0,0-53.6,70.8-75.1,90.9c-0.6,0.5-1.1,1-1.6,1.4c-0.5,0.4-0.9,0.8-1.4,1.1c-0.2,0.1-0.3,0.3-0.5,0.4c-0.2,0.1-0.3,0.2-0.5,0.4
		c-0.1,0.1-0.3,0.2-0.4,0.3c-17.4,12.6-70.2,117.8-70.2,117.8l-216.6,382.4c0,0-40.3,99-202.6,212.1c0,0,0,0,0,0c0,0,0,0-0.1,0.1
		c0,0,0,0,0,0c-2.5,2.2-71.9,44.8-134.4,163.8c-14.6,27.9,15,585,15,585l-840.8,169.3L999,4322l-10.8-340
		c-0.5-17.9-101.4-154.2-107.8-170.9c-17.6-45.5-97.6-197.1-119.4-247l384.7-787.1c4.6-3.9,9.2-8.3,13.6-13.1l67.6-4.6l198-302.6
		l35.2-53.8h0l93.7-143.2l678.8-788.5c19-29,51-47.2,85.6-47c27,0.1,72.6,7.9,94,45.4c18.1,31.8,22,69.8,12,104.7
		c-10.7,37.1-59.6,98-116.7,199.9l-352.2,447.8l135.9,216.4l-490.2,684.1l516.1-642.9l159.4,254l-127.4,164l-308.6,379.2l-9.8,27.5
		c3.7-4.5,443.2-542.2,510.3-559.4c0,0,16.8-15.4,46-26.8c84.4-33,178.5,20.8,190.3,110.7C2578.3,2837,2578.9,2849.4,2578.3,2858.2z
		"/>
	<path class="st3" d="M3587.6,3922.7l-2430.8,0.5c-36.8,0-66.6-29.8-66.6-66.6l-0.7-3406.2c0-36.8,29.8-66.6,66.6-66.6l2430.8-0.5
		c36.8,0,66.6,29.8,66.6,66.6l0.7,3406.2C3654.2,3892.9,3624.4,3922.7,3587.6,3922.7z"/>
	<path class="st4" d="M1881.3,3501.4l-523.6,0.1l-0.1-523.6l523.6-0.1L1881.3,3501.4z M1371.3,3487.9l496.3-0.1l-0.1-496.3
		l-496.3,0.1L1371.3,3487.9z"/>
	<path class="st5" d="M1785.5,1628.1l-38.8-40c-3.7-3.8-9.8-3.9-13.6-0.2L1578,1738.5l-80-79.3c-3.7-3.8-9.8-3.9-13.6-0.2
		l-40.1,38.7c-3.8,3.7-3.9,9.8-0.2,13.6l126.5,125.3c3.7,3.8,9.8,3.9,13.6,0.2l28.8-27.8c0,0,0.1-0.1,0.1-0.1l4.3-4.2l6.8-6.6
		c0.1-0.1,0.1-0.2,0.2-0.2l160.8-156.3C1789.1,1638,1789.2,1631.9,1785.5,1628.1z"/>
	<path class="st4" d="M1880.9,1963.5l-523.6,0.1l-0.1-523.6l523.6-0.1L1880.9,1963.5z M1371,1950l496.3-0.1l-0.1-496.3l-496.3,0.1
		L1371,1950z"/>
	<path class="st6" d="M1785.6,2401l-38.8-40c-3.7-3.8-9.8-3.9-13.6-0.2l-154.9,150.6l-80-79.3c-3.7-3.8-9.8-3.9-13.6-0.2l-40.1,38.7
		c-3.8,3.7-3.9,9.8-0.2,13.6l126.5,125.3c3.7,3.8,9.8,3.9,13.6,0.2l28.8-27.8c0,0,0.1-0.1,0.1-0.1l4.3-4.2l6.8-6.6
		c0.1-0.1,0.1-0.2,0.2-0.2l160.8-156.3C1789.2,2410.9,1789.3,2404.8,1785.6,2401z"/>
	<path class="st6" d="M1785.8,3147.4l-38.8-40c-3.7-3.8-9.8-3.9-13.6-0.2l-154.9,150.6l-80-79.3c-3.7-3.8-9.8-3.9-13.6-0.2
		l-40.1,38.7c-3.8,3.7-3.9,9.8-0.2,13.6l126.5,125.3c3.7,3.8,9.8,3.9,13.6,0.2l28.8-27.8c0,0,0.1-0.1,0.1-0.1l4.3-4.2l6.8-6.6
		c0.1-0.1,0.1-0.2,0.2-0.2l160.8-156.3C1789.4,3157.3,1789.5,3151.2,1785.8,3147.4z"/>
	<path class="st4" d="M1881.1,2736.4l-523.6,0.1l-0.1-523.6l523.6-0.1L1881.1,2736.4z M1371.1,2722.9l496.3-0.1l-0.1-496.3
		l-496.3,0.1L1371.1,2722.9z"/>
	<g>
		<g>
			<path class="st7" d="M2030.5,813.1l0,20.5l-50.1,0l0,183.6l-62.8,0l0-183.6l-50.4,0l0-20.5L2030.5,813.1z"/>
			<path class="st7" d="M2129.3,809.5c59.4,0,89.1,35.2,89.1,105.5c0,70.4-30.2,105.5-90.7,105.5c-60.5,0-90.7-36-90.8-107.9
				C2037,843.9,2067.7,809.5,2129.3,809.5z M2127.7,825.8c-11.2,0-18.7,6.2-22.6,18.5c-3.9,12.3-5.9,35.9-5.9,70.8
				c0,34.9,2,58.5,5.9,70.8c3.9,12.3,11.5,18.5,22.7,18.5c11.2,0,18.7-6.2,22.6-18.5c3.9-12.3,5.9-35.9,5.9-70.8
				c0-34.8-2-58.3-5.9-70.7C2146.4,832,2138.8,825.8,2127.7,825.8z"/>
			<path class="st7" d="M2336.4,1017.1l0-204l84.6,0c60.1,0,90.1,34.1,90.2,102.2c0,67.9-31.1,101.8-93.4,101.8L2336.4,1017.1z
				 M2395.6,1000.2l15.5,0c14.2,0,24.1-6.2,29.6-18.5c5.5-12.3,8.2-34.6,8.2-66.7c0-32.2-2.7-54.4-8.2-66.7
				c-5.4-12.3-15.3-18.4-29.7-18.4l-15.5,0L2395.6,1000.2z"/>
			<path class="st7" d="M2620.7,809.4c59.4,0,89.1,35.2,89.1,105.5c0,70.4-30.2,105.5-90.7,105.6c-60.5,0-90.7-36-90.8-107.9
				C2528.3,843.8,2559.1,809.4,2620.7,809.4z M2619,825.7c-11.2,0-18.7,6.2-22.6,18.5c-3.9,12.3-5.9,35.9-5.9,70.8
				c0,34.9,2,58.5,5.9,70.8c3.9,12.3,11.5,18.5,22.7,18.5c11.2,0,18.7-6.2,22.6-18.5c3.9-12.3,5.9-35.9,5.9-70.8
				c0-34.8-2-58.3-5.9-70.7C2637.7,831.9,2630.2,825.7,2619,825.7z"/>
			<path class="st7" d="M2886.9,813l0,183.6l83.9,0l0,20.5l-143.1,0l0-204L2886.9,813z"/>
			<path class="st7" d="M3042.6,812.9l0,204l-59.2,0l0-204L3042.6,812.9z"/>
			<path class="st7" d="M3211.4,870l-27.5,5.1c1.2-5.5,1.8-10.1,1.8-13.8c0-23.7-14.4-35.6-43.2-35.6c-22.7,0-34.1,8.2-34.1,24.5
				c0,12.3,12.7,22.8,38.1,31.5c49,16.8,73.6,41.7,73.6,74.7c0,19.3-6.9,34.9-20.6,46.6c-13.8,11.7-32,17.6-54.9,17.6
				c-50.5,0-75.8-19.6-75.8-58.7c0-3.2,0.2-7.1,0.7-11.8l28.5-6.3c-2.2,8.7-3.3,16.2-3.3,22.6c0,25.3,14.5,38,43.5,38
				c23.2,0,34.8-9.1,34.8-27.4c0-13.6-13.9-25.5-41.7-35.7c-40.2-14.7-60.2-38.3-60.3-70.7c0-18.3,6.7-33.1,20.1-44.3
				c13.4-11.2,31-16.8,52.8-16.8C3189,809.5,3211.4,829.6,3211.4,870z"/>
			<path class="st7" d="M3389.3,812.8l0,20.5l-50.1,0l0,183.6l-62.8,0l0-183.6l-50.4,0l0-20.5L3389.3,812.8z"/>
		</g>
	</g>
	<rect x="1255.1" y="1042.5" class="st8" width="2126.5" height="7.2"/>
	<rect x="1255.3" y="967.5" class="st9" width="598.8" height="40.2"/>
	<rect x="1565.6" y="913.1" class="st9" width="288.5" height="40.2"/>
	<rect x="2125" y="1503" class="st4" width="1256.7" height="12.6"/>
	<rect x="2125" y="1645.9" class="st4" width="1256.7" height="12.6"/>
	<rect x="2125" y="1793.7" class="st4" width="1256.7" height="12.6"/>
	<rect x="2125.1" y="1936.6" class="st4" width="1256.7" height="12.6"/>
	<rect x="2125.1" y="2079.6" class="st4" width="1256.7" height="12.6"/>
	<rect x="2125.1" y="2215.1" class="st4" width="1256.7" height="12.6"/>
	<rect x="2125.2" y="2360.5" class="st4" width="1256.7" height="12.6"/>
	<rect x="2125.2" y="2505.8" class="st4" width="1256.7" height="12.6"/>
	<rect x="2125.2" y="2648.8" class="st4" width="1256.7" height="12.6"/>
	<rect x="2125.2" y="2791.7" class="st4" width="1256.7" height="12.6"/>
	<rect x="2125.3" y="2934.6" class="st4" width="1256.7" height="12.6"/>
	<rect x="2125.3" y="3082.4" class="st4" width="1256.7" height="12.6"/>
	<rect x="2125.3" y="3225.3" class="st4" width="1256.7" height="12.6"/>
	<rect x="2125.4" y="3360.9" class="st4" width="1256.7" height="12.6"/>
	<path class="st2" d="M3610.5,2468.8c-2.3-8.2-0.4-16.8,1.2-25.2c10.7-56.5,3-114.9-11.7-170.2c-14.7-55.3-36.2-108.5-53.8-162.9
		c-8-24.7-15.2-50.1-16.4-76c-0.1-1.8-0.1-3.6-0.1-5.5c-0.4-27.9,7.4-56.9,26.2-77.4c15.6-17,39.7-26.7,61.8-23.1
		c4.6,0.7,9.1,2,13.4,3.9c26.7,11.7,39.8,41.6,50.6,69c14.9,37.8,29.9,75.7,44.8,113.6c9.7,24.5,85.8,237.1,83.3,264.1
		c-2.4,25.6-112.7,36.6-121.7,60.8c-24,64.3-12.5-28.5-48,30.2c-2.8,4.6-5.9,9.4-11,11.2C3621.4,2483.9,3612.9,2476.9,3610.5,2468.8
		z"/>
	<path class="st2" d="M4303.2,4562.9c-183.4,12.2-217.9,102.9-396.1,155.1c-40.8,12-230.8,79.4-270.1,94.3
		c-1.4-10.1-136.2-288.6-156.5-335.7c-15.7-36.4-5.5-11.1-17.1-49.5c-13-43-96.6-279.8-111.5-322.1
		c-24.9-70.7-290.4-331.4-343.6-402c-16.9-22.4-23-51.2-24-79.2c-1.1-28-9.3-91.9-9-119.9c1.1-89-27.2-128.7-73-205.2
		c-18.2-30.3-35.2-60.9-53-90.9l209.2-110c36,82.4,95.4,89.8,169.8,97.1c31.1,3,61.9,2.1,92.8-0.6c8.3-0.8,16.5-1.6,24.8-2.6
		c0.5-0.1,1-0.1,1.5-0.2c35.6-4.2,64.8-10.5,100.5-20.6c24.2-6.9,45.5-34.5,50.3-59.7c0.1-0.4,0.2-0.8,0.2-1.2
		c0.1-0.8,0.2-1.6,0.4-2.4c2.3-17.6-3.3-35.2-8.9-52.1c-5.5-16.8-11-33.6-16.5-50.4c-0.1-0.1-0.1-0.2-0.2-0.4
		c-0.9-2.8-1.8-5.5-2.7-8.2c-18-55-59.2-96.4-106.9-129.3c-80.6-55.5-133.2-88.3-216.2-127.2c-8-3.7-15.3-7-22.1-9.9l25.3-237.6
		c29.7,8,61.8,18.7,110,36.4c63,23.1,144,36.6,210.8,31.4c1.2-0.1,2.4-0.2,3.5-0.3c-0.3-2.5,0-5.3-1.3-7.5
		c-16.6-28.9-29.4-33.8-65.8-61.3c-29-22-59.6-40.8-86.1-65.7c-28-26.4-58-57.1-83.6-85.8c-38.8-43.5-77.7-87.1-122.1-124.8
		c-25.6-21.7-52.9-41.2-80.6-60c-32.8-22.2-66.4-43.7-95.2-70.8c-28.8-27.2-52.8-61-61.2-99.7c-5.8-26.7-3.1-55.9,8.7-80.2
		c2.8-5.8,6.1-11.3,9.9-16.3c3.4-4.6,7.3-9,11.6-12.9c13.9-12.8,33-21.5,51.6-18.2c13.8,2.5,25.5,11.1,36.7,19.4
		c81.8,60.9,172.5,110.5,245.7,181.4c24.7,24,54.4,42.6,86.7,54.4c2.7,1,5.5,2,8.2,2.9c-0.2-0.6-0.5-1.3-0.8-1.9
		c-9.9-24.7-32.4-41.9-48.8-63c-23.8-30.7-46.5-78.8-29-113.6c7.1-14,15-28.7,24.9-41c5.7-7,12-13.2,19.3-18c5-3.3,10.4-6,16.4-7.8
		c20.4-6.2,43-0.4,61.3,10.6c18.3,11,33,26.9,47.6,42.5c67.4,72.5,136.4,149.9,208.6,217.6c82.4,77.2,146.1,173,221.3,257.1
		c31.6,35.4,72.9,69.7,81.4,116.4c18.1,99.5,28.1,181.1,23.5,282.1c24.6,75.2,116.3,114.4,136.8,190.9c13,48.3-6,98.7-24.8,145
		c-70.7,173.9-123.1,348.8-170.3,530.5c-47.2,181.6,289.6,508.2,323.2,692.8C4241,4422.1,4270.3,4509.3,4303.2,4562.9z"/>
	<path class="st10" d="M3837.7,2670.2c-82.2-123.7-356.8-468.4-482.9-546.9c-5.6-3.5-11.4-7-17.2-10.4c-9.9-24.6-32.5-41.9-48.8-63
		c-23.8-30.7-46.5-78.8-29-113.5c7.1-14,14.9-28.7,24.9-41c-1.8,23.8,4.4,48.9,13.5,70.2c12.8,29.9,32.5,56.2,52.7,81.7
		c49.7,63,103.2,123.2,159.9,180c32,32.1,65.4,63.4,91.9,100.2C3629.1,2364.3,3837.2,2624.8,3837.7,2670.2z"/>
	<path class="st10" d="M3746.2,2918.9c-77.6-151.8-178.6-256.6-198.7-282.1c-22.8-28.7-46.9-55-75.9-76.7c1.2-0.1,2.4-0.2,3.5-0.3
		c-0.3-2.5,0-5.3-1.3-7.5c-16.6-28.9-29.4-33.8-65.8-61.3c-29-22-59.7-40.8-86.1-65.7c-28-26.4-58-57.1-83.6-85.8
		c-38.8-43.5-77.7-87.1-122.2-124.8c-25.6-21.7-52.9-41.1-80.6-60c-32.8-22.2-66.4-43.7-95.2-70.9c-28.8-27.2-52.8-61-61.2-99.7
		c-5.8-26.7-3.1-55.9,8.7-80.2c2.8-5.7,6.1-11.2,9.9-16.3c8.1,3.9,15.3,10.3,20,17.9c10.3,16.8,12,37.3,15.8,56.7
		c15.2,76.8,73.9,146,150.2,163.6c9,2.1,18.2,3.5,26.3,7.7c14.7,7.6,23.4,23,32.3,37c32.9,51.6,78.4,93.5,123.5,134.8
		c7.4,6.8,15.8,14,25.9,14.4c2.8,0.1,5.5-0.6,8-2c6.5-3.5,14.5-1,18,5.5c35.2,66.9,101.9,113.8,155.6,168.8
		C3525.2,2546.7,3737.3,2851.8,3746.2,2918.9z"/>
	<path class="st10" d="M3670.1,2204.8c-34.3-41-68.7-82-103-122.9c-12.8-15.2-25.7-30.9-37.2-47.4c-0.1-1.8-0.1-3.6-0.1-5.5
		c-0.4-27.9,7.4-56.9,26.2-77.4c15.6-17,39.7-26.7,61.8-23.1c-19,11.9-31.5,33.4-34.8,55.7c-4.6,31.2,5.6,62.6,17.6,91.8
		C3619.2,2121.2,3642.6,2164.4,3670.1,2204.8z"/>
	<path class="st11" d="M3040.3,2023.6l60.9-54.7c5.2-4.7,2.5-14.9-5.9-22.7l-54.2-49.8c0,0-44.6-38-84.6-14.4c0,0-32,21.5-5.1,70
		c0,0,12.1,19.3,47.5,49.6l17.1,16.2C3024.2,2025.6,3035.1,2028.2,3040.3,2023.6z"/>
	<path class="st11" d="M3398.6,2040.4l71-40.6c6.1-3.5,5.6-14-1-23.4l-42.5-60.1c0,0-35.6-46.5-79.6-31.9c0,0-35.8,14.3-19.7,67.3
		c0,0,7.7,21.4,36,58.5l13.3,19.4C3382.5,2039,3392.6,2043.8,3398.6,2040.4z"/>
	<path class="st11" d="M3660.4,2053.7l33.1-2.4c2.8-0.2,3.4-6.6,1.2-14.3l-13.9-48.9c0,0-11.9-38.7-31.7-43.5
		c0,0-16.2-2.5-13.1,34.1c0,0,1.8,15.1,11.3,45.9l4.3,15.7C3653.7,2047.9,3657.6,2053.9,3660.4,2053.7z"/>
	
		<rect x="3667.9" y="3721.3" transform="matrix(-0.4064 -0.9137 0.9137 -0.4064 1483.6737 9277.5684)" class="st12" width="174.9" height="871.2"/>
	<polygon class="st13" points="4666.8,5000 3590.3,5000 3333.1,4422.8 3784.4,4222.1 4230.1,4023.8 	"/>
	<polygon class="st14" points="4668.5,5000 4130.4,5000 3784.4,4222.1 4230.1,4023.8 4232.8,4022.6 	"/>
	
		<rect x="1316.6" y="3886.4" transform="matrix(-3.463857e-02 -0.9994 0.9994 -3.463857e-02 -2866.7004 5874.9736)" class="st12" width="174.9" height="871.2"/>
	<polygon class="st13" points="1921.4,5000 938.2,5000 919.1,4410.2 1406.6,4393.3 1900.2,4376.2 	"/>
	<polygon class="st14" points="1427.6,5000 936,5000 916,4410.3 919.1,4410.2 1406.6,4393.3 	"/>
	
		<rect x="3071.2" y="2059.5" transform="matrix(0.3636 -0.9315 0.9315 0.3636 -675.0384 4793.5933)" class="st15" width="199.7" height="1662.8"/>
	
		<rect x="3135.6" y="2060.3" transform="matrix(0.3636 -0.9315 0.9315 0.3636 -676.0452 4793.7798)" class="st16" width="70.2" height="1662.8"/>
	
		<rect x="3162.6" y="1997" transform="matrix(0.3636 -0.9315 0.9315 0.3636 -601.3834 4776.5254)" class="st15" width="65.7" height="1662.8"/>
	
		<rect x="3867.8" y="3178" transform="matrix(0.3636 -0.9315 0.9315 0.3636 -457.7476 5733.5142)" class="st17" width="199.8" height="47.5"/>
	<path class="st5" d="M4166.9,3274.3l-3.6,9.2c-19,48.8-74,72.9-122.8,53.9l-87-34l72.6-185.9l87,34
		C4161.9,3170.5,4186,3225.5,4166.9,3274.3z"/>
	<path class="st18" d="M4165.1,3278.9l-1.8,4.7c-19,48.8-74,72.9-122.8,53.8l-87-34l36.3-93L4165.1,3278.9z"/>
	<polygon class="st19" points="2360.3,2681.6 2149,2493.5 2432.9,2495.4 	"/>
	<polygon class="st20" points="2223,2556.8 2247.6,2493.7 2151,2494.1 2222.2,2558.7 	"/>
	<path class="st2" d="M3062.3,3105.9l-205.3,114.8c-27-45.5-63.4-102.4-100.3-141.4c-19.9-21-40.4-41.6-61.4-61.5
		c-8.1-7.7-16.2-15.3-24.5-22.9c-22.7-20.8-45.9-41-69.7-60.6c-8.9-7.4-17.9-14.6-26.9-21.8c-29-22.8-59.1-45.3-80.2-75.5
		c-8-11.4-14.8-24.8-12.8-38.6c2.8-19.8,22.4-32.8,41.4-39c50.8-16.3,109-19,161.6-9.9c94.1,16.3,168,58.2,241.8,118.7
		c77.9,63.8,92.2,130.9,130.4,224.1C3057,3094.3,3061.5,3104.2,3062.3,3105.9z"/>
	<path class="st11" d="M2632,2942.8l67.2-64.4c5.7-5.5,0-18.3-12.6-28.3l-81.2-64.4c0,0-66.1-49.4-112.9-22.3
		c0,0-36.9,24.9,8.6,86.3c0,0,19.9,24.5,72.4,63.8l25.7,20.9C2611.6,2944.5,2626.3,2948.3,2632,2942.8z"/>
	<path class="st2" d="M3156.1,2493.9l-26.9,237.7c-45.3-19.2-72.7-23.7-132.9-45.9c-108.3-39.9-184.4-44.9-299.8-43.6
		c-17.3,0.2-34.9,0.3-52-1.8c-13.5-1.7-26.6-4.7-39-10.2c-9.5-4.2-18.4-10.3-26-17.7c-0.7-0.7-1.4-1.4-2.1-2.2
		c-13.6-14.2-22-32.9-19.5-52.1c2.6-19.6,15.9-36.4,32.2-47.7c16.3-11.2,35.3-17.6,54.2-23.3c123.1-37.6,228.7-43.6,354.7-23.2
		C3071.1,2475.5,3113.9,2482.6,3156.1,2493.9z"/>
	<path class="st11" d="M2736.3,2574.4l-0.1-81.8c0-7-9.4-11.8-20.8-10.7l-73.2,7.2c0,0-58,7.8-67.2,53.4c0,0-5.4,38.1,48.7,50.5
		c0,0,22.4,3.9,68.6-2.3l23.5-1.9C2727.1,2587.7,2736.3,2581.4,2736.3,2574.4z"/>
	<path class="st2" d="M1047.6,2958c-1.5-40.3,6-107.6,6-107.6s11.9-37.1,59.9-107.2c53.5-78.2,156.6-221.7,159.2-226.7l0.1-0.1
		c51.5-11.4,98.1-30.5,98.1-30.5c1.2-0.4,2.3-0.8,3.5-1.2c1.5-0.6,3.1-1.1,4.6-1.7c48.8-18.5,89.6-53.3,116.8-97.8l38.5-62.9
		l11.5-18.8c19.2-31.4,24.9-69.3,15.6-105c-11.3-43.2-31.5-75.5-31.5-75.5l-170.3,73.1c-44.3,29.5-182,50.7-182,50.7
		c-113.1,19.9-141,65.7-141,65.7l-203.6,240c-109.7,100.3-200.5,311.7-200.5,311.7c-54.2,127.4,23.9,246.2,23.9,246.2
		c9.7,20.7,48.9,172.7,48.9,172.7c-0.2,21.7,20.6,141.4,28.2,184.8c1.7,9.5,3.9,18.8,6.7,28c7.4,24.6,15.7,60.7,30.4,90.7
		l281.3-560.3C1050.7,3027,1047.6,2959.3,1047.6,2958z"/>
	<path class="st11" d="M1336.2,2207.6c0,0-24.5,10.5-0.8,26.9c0,0,40.8,36.8,119.5-7.4c0,0,74.5-30.9,79.3-79.5l1-27.4
		L1336.2,2207.6z"/>
	<path class="st10" d="M1534.2,2322.1l-38.5,63c-27.2,44.6-68.2,79.3-117.1,97.8c-1.4,0.5-2.8,1.1-4.3,1.6c-1.2,0.4-2.3,0.8-3.5,1.2
		c0,0-46.6,19.2-98.1,30.5l-0.1,0.1c-2.6,5.1-96.4,143.7-159.2,226.7c-50.8,67.2-65,167.9-65,167.9s-33.5,23.8-59.5-15.7
		c-26-39.5-2.9-67.2-2.9-67.2s-110.6-51.6-116.7-87.1c0,0,6.1-20.4,86.4,25c0,0,27.1,17.6,55,17.4c0,0,15.1,2.2,33.9-17.2
		c8.3-8.5,17.5-16.1,27.8-22.1c8-4.6,17.3-9.5,25.5-12.2c0,0,9-5.1,72.4-92.4c0,0,53.8-79.5,60.6-118.6c0,0-136.3-53.8-123.5-77.3
		c0,0,189.1,23.1,302.8-38.4C1410.3,2405.4,1461.9,2375.2,1534.2,2322.1z"/>
</g>
</svg>
