<?xml version="1.0" encoding="iso-8859-1"?>
<!-- Generator: Adobe Illustrator 19.0.0, SVG Export Plug-In . SVG Version: 6.00 Build 0)  -->
<svg version="1.1" id="Capa_1" xmlns="http://www.w3.org/2000/svg" xmlns:xlink="http://www.w3.org/1999/xlink" x="0px" y="0px"
	 viewBox="0 0 512 512" style="enable-background:new 0 0 512 512;" xml:space="preserve">
	  <style>
	 	path {
	 	
	 	fill: #0068fe;
	 	}
	 </style>
<g>
	<g>
		<path d="M256,0c-56.611,0-102.668,46.057-102.668,102.669v69.866c0,4.136,3.352,7.489,7.489,7.489
			c4.137,0,7.489-3.353,7.489-7.489v-69.866c0-48.352,39.337-87.69,87.689-87.69s87.69,39.338,87.69,87.69v69.866
			c0,4.136,3.353,7.489,7.489,7.489c4.137,0,7.489-3.353,7.489-7.489v-69.866C358.669,46.057,312.612,0,256,0z"/>
	</g>
</g>
<g>
	<g>
		<path d="M316.136,125.635H196.054c-4.137,0-7.489,3.353-7.489,7.489c0,4.136,3.353,7.489,7.489,7.489h120.082
			c4.137,0,7.489-3.353,7.489-7.489C323.625,128.988,320.272,125.635,316.136,125.635z"/>
	</g>
</g>
<g>
	<g>
		<path d="M444.062,502.798l-12.863-54.761V138.583c0-7.139-5.808-12.947-12.947-12.947H385.76c-4.137,0-7.489,3.353-7.489,7.489
			s3.353,7.489,7.489,7.489h30.46V441.35H95.78V140.614h30.581c4.137,0,7.489-3.353,7.489-7.489s-3.353-7.489-7.489-7.489H93.748
			c-7.139,0-12.947,5.808-12.947,12.947v309.454l-12.863,54.761c-0.524,2.227,0,4.571,1.42,6.364
			c1.421,1.793,3.583,2.838,5.871,2.838h11.24h339.063h11.24c2.288,0,4.45-1.045,5.871-2.838
			C444.062,507.369,444.585,505.025,444.062,502.798z M426.641,496.484c-0.194,0.245-0.544,0.537-1.11,0.537H86.469
			c-0.567,0-0.917-0.292-1.111-0.537c-0.193-0.244-0.394-0.649-0.27-1.195l9.152-38.96h323.52l8.786,37.403l0.364,1.55
			C427.039,495.833,426.835,496.24,426.641,496.484z"/>
	</g>
</g>
<g>
	<g>
		<path d="M298.483,212.865c-16.051,0-31.119,6.127-42.483,17.055c-11.364-10.928-26.431-17.055-42.483-17.055
			c-33.858,0-61.403,27.545-61.403,61.404c0,30.161,17.712,59.258,51.222,84.144c24.619,18.284,48.912,27.89,49.934,28.289
			c0.878,0.343,1.804,0.515,2.73,0.515c0.926,0,1.852-0.172,2.73-0.515c1.022-0.4,25.315-10.005,49.934-28.289
			c33.51-24.886,51.222-53.983,51.222-84.144C359.886,240.411,332.341,212.865,298.483,212.865z M255.996,371.605
			c-15.245-6.627-88.903-41.551-88.903-97.336c0-25.599,20.826-46.425,46.424-46.425c14.376,0,27.711,6.503,36.585,17.842
			c1.42,1.814,3.595,2.874,5.898,2.874s4.478-1.06,5.898-2.874c8.874-11.339,22.209-17.842,36.585-17.842
			c25.599,0,46.424,20.826,46.424,46.425C344.907,329.959,271.218,364.97,255.996,371.605z"/>
	</g>
</g>
<g>
</g>
<g>
</g>
<g>
</g>
<g>
</g>
<g>
</g>
<g>
</g>
<g>
</g>
<g>
</g>
<g>
</g>
<g>
</g>
<g>
</g>
<g>
</g>
<g>
</g>
<g>
</g>
<g>
</g>
</svg>
