
<svg version="1.1" id="Layer_1" xmlns="http://www.w3.org/2000/svg" xmlns:xlink="http://www.w3.org/1999/xlink" x="0px" y="0px"
	 viewBox="0 0 499.425 499.425" style="enable-background:new 0 0 499.425 499.425;" xml:space="preserve">
<g transform="translate(1 2)">
	
	<g  id="XMLID_1550_">
					<radialGradient id="XMLID_80_" cx="219.0442" cy="34.4796" r="4.7047" gradientUnits="userSpaceOnUse">
						<stop offset="0" style="stop-color:#373636"/>
						<stop offset="1" style="stop-color:#030303"/>
					</radialGradient>
					<circle id="XMLID_1555_" class="st3" cx="219" cy="34.5" r="4.7"/>
					<radialGradient id="XMLID_81_" cx="158.2117" cy="60.9219" r="6.8129" gradientUnits="userSpaceOnUse">
						<stop offset="0" style="stop-color:#1A4790"/>
						<stop offset="1" style="stop-color:#030303"/>
					</radialGradient>
					<path id="XMLID_1554_" class="st4" d="M165,60.9c0,3.8-3,6.8-6.8,6.8c-3.8,0-6.8-3.1-6.8-6.8c0-3.8,3-6.8,6.8-6.8       C162,54.1,165,57.2,165,60.9z"/>
					<radialGradient id="XMLID_82_" cx="158.2117" cy="60.9211" r="5.4758" gradientUnits="userSpaceOnUse">
						<stop offset="0" style="stop-color:#1A4790"/>
						<stop offset="9.644599e-002" style="stop-color:#1D458C"/>
						<stop offset="0.2361" style="stop-color:#224380"/>
						<stop offset="0.4019" style="stop-color:#273D6D"/>
						<stop offset="0.5879" style="stop-color:#263453"/>
						<stop offset="0.7907" style="stop-color:#1E2533"/>
						<stop offset="1" style="stop-color:#030303"/>
					</radialGradient>
					<path id="XMLID_1553_" class="st5" d="M163.7,60.9c0,3-2.4,5.5-5.5,5.5c-3,0-5.5-2.5-5.5-5.5c0-3,2.4-5.5,5.5-5.5       C161.2,55.4,163.7,57.9,163.7,60.9z"/>
					<linearGradient id="XMLID_83_" gradientUnits="userSpaceOnUse" x1="219.2556" y1="56.7802" x2="219.2556" y2="62.9515">
						<stop offset="0" style="stop-color:#BDBEC0"/>
						<stop offset="1.057113e-002" style="stop-color:#BFC0C2"/>
						<stop offset="0.137" style="stop-color:#D8D8D9"/>
						<stop offset="0.264" style="stop-color:#ECEBEB"/>
						<stop offset="0.3908" style="stop-color:#F8F8F8"/>
						<stop offset="0.5175" style="stop-color:#FFFFFF"/>
						<stop offset="0.6278" style="stop-color:#F8F7F7"/>
						<stop offset="0.7536" style="stop-color:#E9E9E9"/>
						<stop offset="0.8865" style="stop-color:#D3D4D4"/>
						<stop offset="1" style="stop-color:#BDBEC0"/>
					</linearGradient>
					<path id="XMLID_1552_" class="st6" d="M252.7,59.8c0,1.9-1.5,3.4-3.4,3.4h-60c-1.9,0-3.4-1.5-3.4-3.4l0,0       c0-1.9,1.5-3.4,3.4-3.4h60C251.1,56.4,252.7,57.9,252.7,59.8L252.7,59.8z"/>
					<linearGradient id="XMLID_84_" gradientUnits="userSpaceOnUse" x1="219.2542" y1="57.5852" x2="219.2542" y2="62.1181">
						<stop offset="0" style="stop-color:#959597"/>
						<stop offset="0.5359" style="stop-color:#555252"/>
						<stop offset="1" style="stop-color:#231F20"/>
					</linearGradient>
					<path id="XMLID_1551_" class="st7" d="M251.9,59.8c0,1.4-1.5,2.5-3.3,2.5h-58.6c-1.8,0-3.3-1.1-3.3-2.5l0,0       c0-1.4,1.5-2.5,3.3-2.5h58.6C250.4,57.3,251.9,58.4,251.9,59.8L251.9,59.8z"/>
				</g>
</svg>
