<?xml version="1.0" encoding="utf-8"?>
<!-- Generator: Adobe Illustrator 22.0.1, SVG Export Plug-In . SVG Version: 6.00 Build 0)  -->
<svg version="1.1" xmlns="http://www.w3.org/2000/svg" xmlns:xlink="http://www.w3.org/1999/xlink" x="0px" y="0px"
	 viewBox="0 0 5000 5000" style="enable-background:new 0 0 5000 5000;" xml:space="preserve">
<style type="text/css">
	.st0{display:none;}
	.st1{display:inline;fill:#50C0D5;}
	.st2{opacity:0.14;fill:#020202;}
	.st3{fill:#FFDDAC;}
	.st4{fill:#653332;}
	.st5{fill:#5D4D53;}
	.st6{fill:#473A3F;}
	.st7{fill:#FFFFFF;}
	.st8{opacity:0.2;}
	.st9{fill:#F5D0B8;}
	.st10{fill:#C73B2A;}
	.st11{fill:#573847;}
	.st12{fill:#6B4B5C;}
	.st13{fill:#3E2C38;}
	.st14{fill:#333333;}
	.st15{opacity:0.5;fill:#FFFFFF;}
	.st16{fill:#3D3736;}
	.st17{fill:#ED755C;}
	.st18{opacity:0.18;}
</style>
<g id="Layer_1" class="st0">
	<rect class="st1" width="5000" height="5000"/>
</g>
<g id="Layer_2">
	<ellipse class="st2" cx="2586.8" cy="4632.2" rx="647.9" ry="98.1"/>
	<path class="st3" d="M1858.2,2942.7c68.7,39.9,147.8,63.9,227.1,59.7c5.5,32,3,65.3-7.1,96.1c-15.9,48.3-51,33.8-88.6,24.5
		c-41.8-10.3-82.7-23.9-122.2-41c-78-33.7-150.4-80.3-213.4-137.2c-35.5-32.1-67.9-67.4-96.6-105.6c-44.8-59.5-80.5-125-115.6-190.7
		c0,0-69.3-58.5-77.4-86.6c0,0-41-62.5-17.3-114.3c0,0,17.7-49.9,38.3-30.4c0,0,38.3-55.4,65.3-12.5c0,0,41.7-59.5,72.8,1.9
		c0,0,39-36.1,50,23.7c0,0,2.1,14,24,45.2c0,0,23.7,37-5.8,77.4c0,0,2.6,11.6,4.3,66.9c0.7,15.4,3.5,30.6,8,45.2
		c14.3,46.1,43.9,85.8,75.3,122.4C1730.9,2847.7,1789.6,2902.8,1858.2,2942.7z"/>
	<path class="st3" d="M3338.9,2942.7c-68.7,39.9-147.8,63.9-227.1,59.7c-5.5,32-3,65.3,7.1,96.1c15.9,48.3,51,33.8,88.6,24.5
		c41.8-10.3,82.7-23.9,122.2-41c78-33.7,150.4-80.3,213.4-137.2c35.5-32.1,67.9-67.4,96.6-105.6c44.8-59.5,80.5-125,115.6-190.7
		c0,0,69.3-58.5,77.4-86.6c0,0,41-62.5,17.3-114.3c0,0-17.7-49.9-38.3-30.4c0,0-38.3-55.4-65.3-12.5c0,0-41.7-59.5-72.8,1.9
		c0,0-39-36.1-50,23.7c0,0-2.1,14-24,45.2c0,0-23.7,37,5.8,77.4c0,0-2.6,11.6-4.3,66.9c-0.7,15.4-3.5,30.6-8,45.2
		c-14.4,46.1-43.9,85.8-75.3,122.4C3466.2,2847.7,3407.5,2902.8,3338.9,2942.7z"/>
	<path class="st4" d="M2641.6,4523.7c-4.9,13.2-9.9,26.9-9,41c1.6,25.9,22.8,46.6,45.7,58.9c26.4,14.2,56,20.7,85.4,26.5
		c84.2,16.7,172.5,28.7,254.7,4.1c8.8-2.6,17.8-5.9,24.2-12.4c10.1-10.3,11.4-27.2,5.6-40.4s-17.4-23.1-30.2-29.9
		c-12.7-6.8-26.7-10.8-40.3-15.5c-70.2-24.2-133.9-66.8-183-122.4c-4.7-5.3-9.5-10.9-16.1-13.4c-6.3-2.4-13.2-1.6-19.9-0.8
		c-16.5,2-33,4-49.5,6c-10.4,1.3-28.8-0.7-34.8,9.5c-6.9,11.9-10.3,28.1-15.1,41C2653.5,4491.8,2647.6,4507.7,2641.6,4523.7z"/>
	<path class="st4" d="M2534.3,4523.7c4.9,13.2,9.9,26.9,9,41c-1.6,25.9-22.8,46.6-45.7,58.9c-26.4,14.2-56,20.7-85.4,26.5
		c-84.2,16.7-172.5,28.7-254.7,4.1c-8.8-2.6-17.8-5.9-24.2-12.4c-10.1-10.3-11.4-27.2-5.6-40.4s17.4-23.1,30.2-29.9
		c12.7-6.8,26.7-10.8,40.3-15.5c70.2-24.2,133.9-66.8,183-122.4c4.7-5.3,9.5-10.9,16.1-13.4c6.3-2.4,13.2-1.6,19.9-0.8
		c16.5,2,33,4,49.5,6c10.4,1.3,28.8-0.7,34.8,9.5c6.9,11.9,10.3,28.1,15.1,41C2522.4,4491.8,2528.3,4507.7,2534.3,4523.7z"/>
	<path class="st5" d="M2196.8,3733.9c0,0,107.5,498.2,159.5,658.4h179.9c0,0-23.2-401.9-13.4-539.6c0,0,55.5,6.3,72.4,1.1v-119.1
		L2196.8,3733.9z"/>
	<path class="st6" d="M2523.6,4454.5h-158c-13.9,0-25.2-11.3-25.2-25.2V4402c0-13.9,11.3-25.2,25.2-25.2h158
		c13.9,0,25.2,11.3,25.2,25.2v27.3C2548.8,4443.2,2537.5,4454.5,2523.6,4454.5z"/>
	<path class="st5" d="M2984.1,3733.9c0,0-108.6,498.2-160.6,658.4h-179.9c0,0,24.2-401.9,14.4-539.6c0,0-54.5,6.3-71.3,1.1v-119.1
		L2984.1,3733.9z"/>
	<path class="st6" d="M2656.2,4454.5h158c13.9,0,25.2-11.3,25.2-25.2V4402c0-13.9-11.3-25.2-25.2-25.2h-158
		c-13.9,0-25.2,11.3-25.2,25.2v27.3C2631,4443.2,2642.3,4454.5,2656.2,4454.5z"/>
	<path class="st7" d="M3309.5,2954.4l-152,184.3l-100.4-44.1l-73,639.2c0,0-99.8,64.5-380.5,58.4c-257.6,1.5-406.8-58.4-406.8-58.4
		l-59.3-639.2l-100.4,44.1l-152-184.3l361.7-270.4l9.9-7.4h0.7l307.5-1v-0.3l32.4,0.1l32.4-0.1v0.3l307.5,1h0.6l5.2,3.9
		L3309.5,2954.4z"/>
	<polygon class="st8" points="2607.6,3735.6 2777.2,3524.6 2667.5,3116.2 2728.8,2983.7 2607.6,2895.6 2607.6,2893.7 2606.4,2894.7 
		2605.1,2893.7 2605.1,2895.6 2484,2983.7 2545.2,3116.2 2435.6,3524.6 2605.1,3735.6 2605.1,3738.8 2606.4,3737.2 2607.6,3738.8 	
		"/>
	<path class="st8" d="M3008.6,2132.4V2501c0,21-2.4,41.6-6.9,61.4c-12.4,42.8-34.7,81.8-64.5,114.3h0.6l5.2,3.9
		c-56.2,67.9-143.2,111.6-240.5,111.6c0,0-44.8,41.1-109.1,41.1c-64.3,0-109.1-41.1-109.1-41.1c-95.6,0-181.4-42.3-237.6-108.2
		l9.9-7.4h0.7c-46.8-51.2-75.3-117.9-75.3-190.7v-368.6c0-20.7,2.3-40.9,6.6-60.3c35.1-124,154.6-215.9,295.6-215.9h218.1
		C2870.9,1841.2,3008.6,1972.2,3008.6,2132.4z"/>
	<path class="st3" d="M3012.5,2117.4V2486c0,26.4-3.7,52-10.7,76.4c-12.4,42.8-34.7,81.8-64.5,114.3
		c-56.2,61.5-139,100.5-230.8,100.5c0,0-44.8,41.2-109.1,41.2c-64.2,0-109.1-41.2-109.1-41.2c-91.8,0-174.5-39-230.8-100.5
		c-46.8-51.2-75.3-117.9-75.3-190.7v-368.6c0-20.7,2.3-40.9,6.6-60.3c29.4-131.5,152.8-230.9,299.4-230.9h218.1
		C2874.7,1826.2,3012.5,1957.2,3012.5,2117.4z"/>
	<path class="st7" d="M2774.7,2571.5c-15,40.5-53.1,89-147.4,113.3c0,0-138.4,42.1-203.3-104.9c-2.7-5.7-5.1-11.8-7.3-18
		c0,0,161.2,78.1,366.2-56.7C2782.8,2505.1,2788.1,2535,2774.7,2571.5z"/>
	<path class="st9" d="M2583.1,2693.3c-47.2,0-120.1-17.1-162-112.2c-2.5-5.5-5-11.5-7.4-18.3l-2.7-7.4l7.1,3.4
		c1.6,0.8,162.1,75.6,363-56.5l4.1-2.7l0.9,4.8c0.2,1.3,5.3,31.3-8.3,68.1v0c-14.3,38.7-51.9,90.1-149.7,115.3
		C2627.6,2688,2609.3,2693.3,2583.1,2693.3z M2422.2,2567.6c1.5,3.9,3.1,7.5,4.6,10.9c62.9,142.7,193.9,104.9,199.4,103.2
		c95.2-24.5,131.6-74,145.4-111.3v0c9.8-26.6,9.4-49.9,8.6-59.8C2601.9,2625.6,2455.4,2580.4,2422.2,2567.6z"/>
	<path class="st10" d="M2774.7,2571.5c-15,40.5-53.1,89-147.4,113.3c0,0-138.4,42.1-203.3-104.9
		C2491.7,2617.2,2637.1,2673.5,2774.7,2571.5z"/>
	<path class="st11" d="M3025.4,2483.3l-10.5,11.8c0,0-3.8-190.4-16.2-238.2c0,0-28.2-107.5-71.9-128.6c0,0,38.4-132.4-62-176.3
		c0,0-121.8,123-320.9,122.1c0,0-138.6,10.5-264.2-75.6c0,0-29.8,49.2-5.6,113.4c0,0-80.9,85.2-91.2,189.8c0,0-4.1,136.8,2.2,172
		c0,0-7.4-3.3-35.4-33.5c-22.6-24.3-31.9-55.7-39.6-87.2c-24.1-97.5-24.2-246.5-3.2-326.1c0,0,31-133.6,58.3-144.1
		c0,0-62-189.8-49-238.4c0,0,36.6,92.6,158.7,81.4c0,0-52.1-71.5-40.3-147.6c0,0,93,68.5,191.6,50.4c0,0,62.7-6.7,103.3-22.1
		c17.2-6.5,34.9-11.9,53.1-15c69.4-12.1,217.7-25.3,289.5,63.5c0,0,56.7,58.9,66,118.2c0,0,152.5,106.8,160,293
		c0,0,13.4,135.2-4.2,254.3c-6.1,41.5-19.3,81.8-38.8,119.5h0C3047.2,2455.6,3037.2,2470.1,3025.4,2483.3z"/>
	<path class="st12" d="M2148.8,1723.6c0,0,122.8,431.2,570.5,276.5C2719.3,2000.1,2277.8,2028.2,2148.8,1723.6z"/>
	<path class="st12" d="M2270.6,1642.8c0,0,139.7,377.4,528.8,211.4C2799.5,1854.2,2407.1,1906.8,2270.6,1642.8z"/>
	<path class="st13" d="M2396.2,2290.4c-9.3,9.8-13.3,24.9-8.5,37.6c3.5,9.1,11.1,16.3,19.9,20.4c8.8,4.1,18.8,5.3,28.5,4.8
		c11.3-0.6,22.8-3.6,31.9-10.4c9.1-6.8,15.6-17.6,15.4-29c-0.2-11.5-7.1-22.2-16.6-28.6c-15.9-10.9-40.1-12.4-57.5-4.2
		C2404.5,2283.3,2399.9,2286.5,2396.2,2290.4z"/>
	<path class="st7" d="M2441.9,2284.4c-4.2-0.2-8.8,1.4-11,5c-2.3,3.9-1.3,9,0.6,13.2c3.3,7.3,8.8,13.6,15.6,17.7
		c4.7,2.9,10.7,4.7,15.8,2.4c4.4-2,7-6.9,7.1-11.8c0.1-4.8-2.1-9.5-5.1-13.2C2459.3,2290.8,2451,2284.9,2441.9,2284.4z"/>
	<path class="st13" d="M2730.7,2290.4c-9.3,9.8-13.3,24.9-8.5,37.6c3.5,9.1,11.1,16.3,19.9,20.4c8.8,4.1,18.8,5.3,28.5,4.8
		c11.3-0.6,22.8-3.6,31.9-10.4c9.1-6.8,15.6-17.6,15.4-29c-0.2-11.5-7.1-22.2-16.6-28.6c-15.9-10.9-40.1-12.4-57.5-4.2
		C2739,2283.3,2734.5,2286.5,2730.7,2290.4z"/>
	<path class="st7" d="M2776.5,2284.4c-4.2-0.2-8.8,1.4-11,5c-2.3,3.9-1.3,9,0.6,13.2c3.3,7.3,8.8,13.6,15.6,17.7
		c4.7,2.9,10.7,4.7,15.8,2.4c4.4-2,7-6.9,7.1-11.8s-2.1-9.5-5.1-13.2C2793.9,2290.8,2785.5,2284.9,2776.5,2284.4z"/>
	<g>
		<path class="st14" d="M3020.5,2238.5c-2.1-9.3-6.7-15.1-17.3-16.4c-15.2-1.9-29-8.7-41.9-17c-30.4-19.7-63.1-33.3-99.1-38.5
			c-32.4-4.6-64.2-1.2-96.1,5.7c-34.4,7.4-61.6,26.4-86.9,49.2c-5.5,5-10.7,10.2-16.1,15.2c-9.3,8.8-16.4,9.5-27.2,2.5
			c-9.8-6.4-19.8-9.8-29.9-10.6c-10,0.8-20,4.2-29.9,10.6c-10.8,7-17.9,6.3-27.2-2.5c-5.3-5.1-10.6-10.3-16.1-15.2
			c-25.3-22.8-52.6-41.8-86.9-49.2c-31.8-6.9-63.6-10.4-96.1-5.7c-36,5.1-68.8,18.8-99.1,38.5c-12.9,8.4-26.6,15.1-41.9,17
			c-10.6,1.4-15.2,7.1-17.3,16.4c-1,4.8-1.7,9.6-2.6,14.4v18.3c2.6,3,4.6,6.9,7.8,8.8c12.4,7.5,19.1,18.3,21.9,32.4
			c2.6,13.1,5.6,26.3,9.6,39.1c11.3,36.3,30.3,66.8,63.3,87.8c41.6,26.5,85.6,38.3,134.3,25.6c34.8-9,66.2-24.4,91.2-51
			c20.7-21.9,33.6-48.3,42.7-76.7c2.8-8.7,5-17.5,7.8-26.2c3.7-11.5,11.6-19,23.6-20.4c4.8-0.5,9.8-0.8,14.7-1
			c4.9,0.1,9.8,0.4,14.7,1c12,1.4,19.9,8.9,23.6,20.4c2.8,8.7,5,17.5,7.8,26.2c9.1,28.4,22,54.8,42.7,76.7
			c25,26.6,56.4,41.9,91.2,51c48.8,12.7,92.8,0.9,134.3-25.6c33-21,52-51.5,63.3-87.8c4-12.8,6.9-26,9.6-39.1
			c2.8-14,9.5-24.8,21.9-32.4c3.2-1.9,5.2-5.9,7.8-8.8v-18.3C3022.2,2248.1,3021.6,2243.3,3020.5,2238.5z M2472,2420.7
			c-25.4,18-53.8,26.4-87.1,26.7c-40.1-1-76.6-15.7-104.9-47.9c-43.8-49.7-41.6-121.9,4.8-169.2c55.5-56.8,150.7-56.7,206.1,0.3
			C2545.5,2286.7,2536.7,2374.9,2472,2420.7z M2932.1,2399.5c-28.3,32.2-64.9,46.8-104.9,47.9c-33.3-0.3-61.7-8.7-87.1-26.7
			c-64.7-45.8-73.5-134-18.9-190.1c55.4-56.9,150.6-57.1,206.1-0.3C2973.7,2277.6,2975.9,2349.8,2932.1,2399.5z"/>
		<path class="st15" d="M2472,2420.7c-25.4,18-53.8,26.4-87.1,26.7c-40.1-1-76.6-15.7-104.9-47.9c-43.8-49.7-41.6-121.9,4.8-169.2
			c55.5-56.8,150.7-56.7,206.1,0.3C2545.5,2286.7,2536.7,2374.9,2472,2420.7z"/>
		<path class="st15" d="M2932.1,2399.5c-28.3,32.2-64.9,46.8-104.9,47.9c-33.3-0.3-61.7-8.7-87.1-26.7
			c-64.7-45.8-73.5-134-18.9-190.1c55.4-56.9,150.6-57.1,206.1-0.3C2973.7,2277.6,2975.9,2349.8,2932.1,2399.5z"/>
	</g>
	<path class="st16" d="M2284.2,2128.1c0,0,14.1-37.4,81.4-43.1c0,0,135.3-10.1,159.2,34.5l-106-8.8c-8.2-0.7-16.4-0.9-24.6-0.5
		C2371.5,2111.2,2325,2114.8,2284.2,2128.1z"/>
	<path class="st16" d="M2913,2128.1c0,0-14.1-37.4-81.4-43.1c0,0-135.3-10.1-159.2,34.5l106-8.8c8.2-0.7,16.4-0.9,24.6-0.5
		C2825.7,2111.2,2872.2,2114.8,2913,2128.1z"/>
	<polygon class="st17" points="2594.8,3722.8 2764.3,3511.7 2654.6,3103.4 2715.9,2970.8 2594.8,2882.7 2594.8,2880.9 
		2593.5,2881.8 2592.2,2880.9 2592.2,2882.7 2471.1,2970.8 2532.4,3103.4 2422.7,3511.7 2592.2,3722.8 2592.2,3725.9 2593.5,3724.3 
		2594.8,3725.9 	"/>
	<g>
		<g>
			<path class="st12" d="M763.1,1239.7c37.1-10.6,75.8,11,86.3,48.1c10.6,37.1-11,75.8-48.1,86.3c-37.1,10.6-75.8-11-86.3-48.1
				C704.5,1288.9,726,1250.3,763.1,1239.7 M757.3,1219.1c-48.4,13.8-76.6,64.4-62.8,112.8c13.8,48.4,64.4,76.6,112.8,62.8
				c48.4-13.8,76.6-64.4,62.8-112.8C856.3,1233.5,805.7,1205.3,757.3,1219.1L757.3,1219.1z"/>
		</g>
	</g>
	
		<rect x="626" y="1499.4" transform="matrix(0.6062 -0.7953 0.7953 0.6062 -977.4473 1128.951)" class="st5" width="50.3" height="104"/>
	<path class="st6" d="M629.5,1497l-36.5,47.9l-54.9-41.8c-5.1-3.9-6-11.1-2.2-16.2l22.6-29.6c3.9-5.1,11.1-6,16.2-2.2L629.5,1497z"
		/>
	
		<rect x="986.3" y="1396.9" transform="matrix(-0.9341 -0.3571 0.3571 -0.9341 1438.7725 3163.4741)" class="st5" width="50.3" height="104"/>
	<path class="st6" d="M1001.2,1391.2l56.3,21.5l24.6-64.5c2.3-6-0.7-12.6-6.7-14.9l-34.8-13.3c-6-2.3-12.6,0.7-14.9,6.7
		L1001.2,1391.2z"/>
	
		<rect x="772.5" y="1327.4" transform="matrix(-0.9628 0.2702 -0.2702 -0.9628 1943.8932 2491.2351)" class="st5" width="56.1" height="104"/>
	<path class="st6" d="M751.3,1341l71.2-20l-18.3-65.2c-1.9-6.8-9-10.8-15.8-8.8l-46.6,13.1c-6.8,1.9-10.8,9-8.8,15.8L751.3,1341z"/>
	<circle class="st6" cx="914.7" cy="1787.1" r="376.4"/>
	<path class="st7" d="M1217.8,1700.9c3.9,13.8,6.9,27.7,8.9,41.5c22.3,153.8-72.1,304.1-225.7,347.8
		c-167.4,47.6-341.7-49.4-389.4-216.9c-12.3-43.1-14.9-86.7-9.3-128.5c16.3-120.3,101.8-225.5,226.1-260.9
		C995.8,1436.4,1170.2,1533.5,1217.8,1700.9z"/>
	<g>
		
			<rect x="831" y="1490.9" transform="matrix(0.9618 -0.2737 0.2737 0.9618 -380.3758 286.6541)" class="st5" width="12.5" height="31.4"/>
		
			<rect x="990.3" y="2050.7" transform="matrix(0.9618 -0.2737 0.2737 0.9618 -527.4874 351.6103)" class="st5" width="12.5" height="31.4"/>
		
			<rect x="1188.4" y="1691.8" transform="matrix(0.2737 0.9618 -0.9618 0.2737 2509.9351 91.194)" class="st5" width="12.5" height="31.4"/>
		
			<rect x="628.6" y="1851.1" transform="matrix(0.2737 0.9618 -0.9618 0.2737 2256.5569 745.3076)" class="st5" width="12.5" height="31.4"/>
	</g>
	<polygon class="st17" points="888.7,1789.5 793.4,1954.6 916.9,1808.2 	"/>
	<polygon class="st17" points="941.9,1768.5 1042.8,1813.7 931.5,1801.4 	"/>
	<ellipse transform="matrix(0.3598 -0.933 0.933 0.3598 -1074.6665 1994.2827)" class="st5" cx="916" cy="1780.3" rx="29" ry="29"/>
	<path class="st7" d="M897.2,1785.6c-3-10.4,3.1-21.2,13.4-24.1c10.4-3,21.2,3.1,24.1,13.4c3,10.4-3.1,21.2-13.4,24.1
		C910.9,1802,900.1,1796,897.2,1785.6z"/>
	<path class="st18" d="M1000.3,2092.7c-13.9,3.9-27.8,6.9-41.7,8.9c365.1-320.3-2.5-627-2.5-627s0,0,0,0
		c120.8,16.4,226.5,102.3,262,227.1C1265.9,1869.8,1168.4,2044.8,1000.3,2092.7z"/>
	<g>
		
			<rect x="981.1" y="1484.8" transform="matrix(0.9696 0.2447 -0.2447 0.9696 395.9392 -195.3236)" class="st5" width="5.7" height="21.7"/>
		
			<rect x="1117.9" y="1558.9" transform="matrix(0.7167 0.6973 -0.6973 0.7167 1412.127 -336.9244)" class="st5" width="5.7" height="21.7"/>
		
			<rect x="1203.1" y="1846.9" transform="matrix(-0.2472 0.969 -0.969 -0.2472 3304.1851 1148.5417)" class="st5" width="5.7" height="21.7"/>
		
			<rect x="1128.8" y="1983.5" transform="matrix(-0.6992 0.7149 -0.7149 -0.6992 3348.7922 2579.6948)" class="st5" width="5.7" height="21.7"/>
		
			<rect x="840.6" y="2068.3" transform="matrix(-0.9683 -0.2497 0.2497 -0.9683 1141.0131 4303.0103)" class="st5" width="5.7" height="21.7"/>
		
			<rect x="704.3" y="1993.4" transform="matrix(-0.7131 -0.701 0.701 -0.7131 -193.7308 3929.3284)" class="st5" width="5.7" height="21.7"/>
		
			<rect x="620.4" y="1705" transform="matrix(0.2522 -0.9677 0.9677 0.2522 -1194.3354 1886.1675)" class="st5" width="5.7" height="21.7"/>
		
			<rect x="695.6" y="1568.9" transform="matrix(0.7029 -0.7113 0.7113 0.7029 -916.2155 966.2398)" class="st5" width="5.7" height="21.7"/>
	</g>
	<g>
		<g>
			<g>
				<g>
					<path class="st12" d="M1901,279.8c38,6.6,63.5,42.9,56.8,80.9c-6.6,38-42.9,63.5-80.9,56.8c-38-6.6-63.5-42.9-56.8-80.9
						S1863,273.1,1901,279.8 M1904.7,258.7c-49.6-8.7-97,24.6-105.7,74.2c-8.7,49.6,24.6,97,74.2,105.7c49.6,8.7,97-24.6,105.7-74.2
						C1987.6,314.7,1954.3,267.3,1904.7,258.7L1904.7,258.7z"/>
				</g>
			</g>
		</g>
	</g>
	
		<rect x="1639.4" y="459.7" transform="matrix(0.8919 -0.4522 0.4522 0.8919 -51.4697 808.1076)" class="st5" width="50.3" height="104"/>
	<path class="st6" d="M1668.7,453.3l-53.8,27.3l-31.2-61.5c-2.9-5.7-0.6-12.6,5.1-15.5l33.2-16.8c5.7-2.9,12.6-0.6,15.5,5.1
		L1668.7,453.3z"/>
	
		<rect x="2008.3" y="524.2" transform="matrix(-0.6856 -0.728 0.728 -0.6856 3008.0303 2451.6453)" class="st5" width="50.3" height="104"/>
	<path class="st6" d="M2049.4,519.8l41.3,43.9l50.2-47.3c4.6-4.4,4.9-11.7,0.5-16.3l-25.5-27.1c-4.4-4.6-11.7-4.9-16.3-0.5
		L2049.4,519.8z"/>
	
		<rect x="1845.8" y="369.8" transform="matrix(-0.9844 -0.1758 0.1758 -0.9844 3644.3428 1166.5391)" class="st5" width="56.1" height="104"/>
	<path class="st6" d="M1846.3,365.9l72.8,13l11.9-66.7c1.2-6.9-3.4-13.6-10.3-14.8l-47.6-8.5c-6.9-1.2-13.6,3.4-14.8,10.3
		L1846.3,365.9z"/>
	<circle class="st6" cx="1799.2" cy="838.6" r="376.4"/>
	<path class="st7" d="M2109.6,892.9c-2.5,14.1-5.9,27.9-10.1,41.2c-46.9,148.2-197.3,242.4-354.6,214.9
		c-171.5-30-286.1-193.2-256.2-364.7c7.7-44.2,24.3-84.6,47.6-119.7c67.1-101.2,189.9-158.7,317.1-136.5
		C2024.9,558.1,2139.6,721.4,2109.6,892.9z"/>
	<g>
		
			<rect x="1845.3" y="536.6" transform="matrix(0.9851 0.1722 -0.1722 0.9851 122.7826 -310.6079)" class="st5" width="12.5" height="31.4"/>
		
			<rect x="1745.1" y="1110" transform="matrix(0.9851 0.1722 -0.1722 0.9851 220.0104 -284.7708)" class="st5" width="12.5" height="31.4"/>
		
			<rect x="2079.6" y="873" transform="matrix(-0.1722 0.9851 -0.9851 -0.1722 3320.5068 -1012.9232)" class="st5" width="12.5" height="31.4"/>
		
			<rect x="1506.3" y="772.8" transform="matrix(-0.1722 0.9851 -0.9851 -0.1722 2549.7119 -565.6689)" class="st5" width="12.5" height="31.4"/>
	</g>
	<polygon class="st17" points="1774.8,829.4 1617.1,936.6 1792,858.5 	"/>
	<polygon class="st17" points="1831.8,833.7 1903,918.3 1808.1,858.8 	"/>
	
		<ellipse transform="matrix(0.8183 -0.5748 0.5748 0.8183 -151.1456 1187.8372)" class="st5" cx="1803.3" cy="833" rx="29" ry="29"/>
	
		<ellipse transform="matrix(0.3243 -0.946 0.946 0.3243 430.5135 2268.7019)" class="st7" cx="1803.3" cy="833" rx="19.5" ry="19.5"/>
	<path class="st18" d="M1743.3,1150.9c-14.2-2.5-28-5.9-41.4-10.1c468.1-129.5,270.6-565.6,270.6-565.6s0,0,0,0
		c101.7,67.4,159.4,190.6,137,318.5C2079.4,1065.8,1915.4,1181,1743.3,1150.9z"/>
	<g>
		
			<rect x="1985.6" y="595.5" transform="matrix(0.7664 0.6423 -0.6423 0.7664 853.952 -1135.6082)" class="st5" width="5.7" height="21.7"/>
		
			<rect x="2076.5" y="721.7" transform="matrix(0.3418 0.9398 -0.9398 0.3418 2057.187 -1471.9225)" class="st5" width="5.7" height="21.7"/>
		
			<rect x="2027.8" y="1018.1" transform="matrix(-0.6443 0.7648 -0.7648 -0.6443 4125.9502 138.9588)" class="st5" width="5.7" height="21.7"/>
		
			<rect x="1901.5" y="1108.8" transform="matrix(-0.9407 0.3393 -0.3393 -0.9407 4075.6689 1526.5682)" class="st5" width="5.7" height="21.7"/>
		
			<rect x="1605.1" y="1059.6" transform="matrix(-0.7631 -0.6463 0.6463 -0.7631 2143.2458 2926.6038)" class="st5" width="5.7" height="21.7"/>
		
			<rect x="1514.9" y="932.9" transform="matrix(-0.3369 -0.9415 0.9415 -0.3369 1140.542 2690.8198)" class="st5" width="5.7" height="21.7"/>
		
			<rect x="1565" y="636.7" transform="matrix(0.6483 -0.7614 0.7614 0.6483 58.3828 1421.5709)" class="st5" width="5.7" height="21.7"/>
		
			<rect x="1691.9" y="546.9" transform="matrix(0.9424 -0.3345 0.3345 0.9424 -88.966 598.9969)" class="st5" width="5.7" height="21.7"/>
	</g>
	<g>
		<g>
			<g>
				<g>
					<path class="st12" d="M2936,436.3c37.4-9.6,75.5,13,85,50.4c9.6,37.4-13,75.5-50.4,85c-37.4,9.6-75.5-13-85-50.4
						S2898.6,445.9,2936,436.3 M2930.7,415.6c-48.8,12.5-78.3,62.3-65.9,111.1c12.5,48.8,62.3,78.3,111.1,65.9
						c48.8-12.5,78.3-62.3,65.9-111.1S2979.5,403.1,2930.7,415.6L2930.7,415.6z"/>
				</g>
			</g>
		</g>
	</g>
	
		<rect x="2790.5" y="692.9" transform="matrix(0.6275 -0.7786 0.7786 0.6275 468.7368 2469.6787)" class="st5" width="50.3" height="104"/>
	<path class="st6" d="M2795.5,689.9l-37.8,46.9l-53.7-43.3c-5-4-5.7-11.3-1.7-16.2l23.4-29c4-5,11.3-5.7,16.2-1.7L2795.5,689.9z"/>
	
		<rect x="3153.4" y="600.2" transform="matrix(-0.924 -0.3823 0.3823 -0.924 5866.1938 2470.1633)" class="st5" width="50.3" height="104"/>
	<path class="st6" d="M3169.9,594.3l55.7,23l26.4-63.8c2.4-5.9-0.4-12.6-6.2-15.1l-34.4-14.2c-5.9-2.4-12.6,0.4-15.1,6.2
		L3169.9,594.3z"/>
	
		<rect x="2941.6" y="525" transform="matrix(-0.9698 0.2439 -0.2439 -0.9698 5990.2153 412.3392)" class="st5" width="56.1" height="104"/>
	<path class="st6" d="M2921.5,537.3l71.7-18l-16.5-65.7c-1.7-6.8-8.7-11-15.5-9.3l-46.9,11.8c-6.8,1.7-11,8.7-9.3,15.5L2921.5,537.3
		z"/>
	<circle class="st6" cx="3072.6" cy="987.7" r="376.4"/>
	<path class="st7" d="M3378,909.7c3.6,13.9,6.1,27.9,7.7,41.7c18.1,154.4-80.4,302.1-235.1,341.6
		c-168.6,43.1-340.3-58.7-383.3-227.4c-11.1-43.4-12.6-87.1-5.8-128.7c19.6-119.8,107.9-222.7,233.1-254.7
		C3163.3,639.3,3334.9,741.1,3378,909.7z"/>
	<g>
		
			<rect x="2996.6" y="689.5" transform="matrix(0.9689 -0.2474 0.2474 0.9689 -81.1134 764.966)" class="st5" width="12.5" height="31.4"/>
		
			<rect x="3140.6" y="1253.4" transform="matrix(0.9689 -0.2474 0.2474 0.9689 -216.1736 818.1404)" class="st5" width="12.5" height="31.4"/>
		
			<rect x="3348.4" y="900" transform="matrix(0.2475 0.9689 -0.9689 0.2475 3411.7046 -2561.175)" class="st5" width="12.5" height="31.4"/>
		
			<rect x="2784.5" y="1044" transform="matrix(0.2475 0.9689 -0.9689 0.2475 3126.874 -1906.417)" class="st5" width="12.5" height="31.4"/>
	</g>
	<polygon class="st17" points="3046.6,989.3 2946.9,1151.8 3074.3,1008.8 	"/>
	<polygon class="st17" points="3100.4,969.8 3200,1017.8 3089.1,1002.4 	"/>
	
		<ellipse transform="matrix(0.9264 -0.3766 0.3766 0.9264 -143.0662 1230.0608)" class="st5" cx="3074.1" cy="980.9" rx="29" ry="29"/>
	<circle class="st7" cx="3074.1" cy="980.9" r="19.5"/>
	<path class="st18" d="M3149.9,1295.4c-14,3.6-28,6.1-41.9,7.8c373.6-310.3,14.5-626.8,14.5-626.8s0,0,0,0
		c120.4,19.7,223.6,108.4,255.7,234.1C3421.4,1079.8,3319.2,1252.2,3149.9,1295.4z"/>
	<g>
		
			<rect x="3147" y="687.4" transform="matrix(0.9626 0.271 -0.271 0.9626 307.0412 -827.3785)" class="st5" width="5.7" height="21.7"/>
		
			<rect x="3281.7" y="765.1" transform="matrix(0.6975 0.7166 -0.7166 0.6975 1549.5284 -2118.8538)" class="st5" width="5.7" height="21.7"/>
		
			<rect x="3359" y="1055.4" transform="matrix(-0.2735 0.9619 -0.9619 -0.2735 5306.8237 -1875.8961)" class="st5" width="5.7" height="21.7"/>
		
			<rect x="3281.1" y="1189.9" transform="matrix(-0.7184 0.6957 -0.6957 -0.7184 6478.3003 -221.2247)" class="st5" width="5.7" height="21.7"/>
		
			<rect x="2990.7" y="1266.8" transform="matrix(-0.9612 -0.2759 0.2759 -0.9612 5518.2954 3331.709)" class="st5" width="5.7" height="21.7"/>
		
			<rect x="2856.4" y="1188.3" transform="matrix(-0.6938 -0.7202 0.7202 -0.6938 3979.4346 4090.2593)" class="st5" width="5.7" height="21.7"/>
		
			<rect x="2780.4" y="897.7" transform="matrix(0.2784 -0.9605 0.9605 0.2784 1135.6992 3328.7666)" class="st5" width="5.7" height="21.7"/>
		
			<rect x="2859.2" y="763.7" transform="matrix(0.722 -0.6919 0.6919 0.722 259.8531 2195.7908)" class="st5" width="5.7" height="21.7"/>
	</g>
	<g>
		<g>
			<g>
				<g>
					<path class="st12" d="M4312.6,1223.3c34.4,17.4,48.2,59.5,30.8,93.9s-59.5,48.2-93.9,30.8c-34.4-17.4-48.2-59.5-30.8-93.9
						S4278.2,1205.8,4312.6,1223.3 M4322.3,1204.2c-44.9-22.8-100-4.7-122.7,40.2c-22.8,44.9-4.7,100,40.2,122.7
						c44.9,22.8,100,4.7,122.7-40.2C4385.3,1282,4367.2,1226.9,4322.3,1204.2L4322.3,1204.2z"/>
				</g>
			</g>
		</g>
	</g>
	
		<rect x="3993.7" y="1324.2" transform="matrix(0.985 -0.1725 0.1725 0.985 -177.1623 713.9631)" class="st5" width="50.3" height="104"/>
	<path class="st6" d="M4039.9,1321.5l-59.4,10.4l-11.9-68c-1.1-6.3,3.1-12.3,9.4-13.4l36.7-6.4c6.3-1.1,12.3,3.1,13.4,9.4
		L4039.9,1321.5z"/>
	
		<rect x="4327.7" y="1493.4" transform="matrix(-0.4435 -0.8963 0.8963 -0.4435 4898.1055 6132.2725)" class="st5" width="50.3" height="104"/>
	<path class="st6" d="M4384.5,1496.1l26.7,54l61.9-30.6c5.7-2.8,8-9.7,5.2-15.5l-16.5-33.4c-2.8-5.7-9.7-8-15.5-5.2L4384.5,1496.1z"
		/>
	
		<rect x="4217.2" y="1299.2" transform="matrix(-0.8904 -0.4552 0.4552 -0.8904 7409.917 4486.9229)" class="st5" width="56.1" height="104"/>
	<path class="st6" d="M4235.2,1289.7l65.8,33.7l30.9-60.3c3.2-6.3,0.7-14-5.6-17.2l-43.1-22c-6.3-3.2-14-0.7-17.2,5.6L4235.2,1289.7
		z"/>
	
		<ellipse transform="matrix(0.7071 -0.7071 0.7071 0.7071 -35.0875 3371.5569)" class="st6" cx="4052.3" cy="1728.1" rx="376.4" ry="376.4"/>
	<path class="st7" d="M4333.4,1870.6c-6.5,12.8-13.7,25-21.7,36.5c-88.1,128-259.4,174.3-401.9,102.2
		c-155.3-78.7-217.4-268.3-138.7-423.5c20.3-40,47.9-73.8,80.4-100.6c93.7-77.3,227.9-96.5,343.2-38.1
		C4350,1525.7,4412.1,1715.3,4333.4,1870.6z"/>
	<g>
		
			<rect x="4179.6" y="1453.9" transform="matrix(0.892 0.452 -0.452 0.892 1116.1262 -1733.1985)" class="st5" width="12.5" height="31.4"/>
		
			<rect x="3916.5" y="1973" transform="matrix(0.892 0.452 -0.452 0.892 1322.3779 -1558.2529)" class="st5" width="12.5" height="31.4"/>
		
			<rect x="4305.6" y="1844" transform="matrix(-0.452 0.892 -0.892 -0.452 7919.5801 -1146.1764)" class="st5" width="12.5" height="31.4"/>
		
			<rect x="3786.5" y="1580.9" transform="matrix(-0.452 0.892 -0.892 -0.452 6931.0918 -1065.0062)" class="st5" width="12.5" height="31.4"/>
	</g>
	<polygon class="st17" points="4031.6,1712.2 3849.6,1768.8 4039.6,1745.1 	"/>
	<polygon class="st17" points="4084.9,1733 4128.3,1834.7 4054.9,1750 	"/>
	<ellipse transform="matrix(0.5607 -0.828 0.828 0.5607 355.0011 4117.1226)" class="st5" cx="4057.9" cy="1724" rx="29" ry="29"/>
	
		<ellipse transform="matrix(0.9504 -0.3112 0.3112 0.9504 -334.9954 1348.2959)" class="st7" cx="4057.9" cy="1724" rx="19.5" ry="19.5"/>
	<path class="st18" d="M3907.7,2010.6c-12.9-6.5-25.1-13.8-36.7-21.8c485.5,12.6,423.8-462.1,423.8-462.1s0,0,0,0
		c77.6,94.1,96.9,228.8,38.2,344.6C4254,2027.2,4063.6,2089.6,3907.7,2010.6z"/>
	<g>
		
			<rect x="4298.2" y="1550.3" transform="matrix(0.5458 0.8379 -0.8379 0.5458 3261.5442 -2894.772)" class="st5" width="5.7" height="21.7"/>
		
			<rect x="4348.3" y="1697.6" transform="matrix(5.290167e-02 0.9986 -0.9986 5.290167e-02 5827.041 -2727.0295)" class="st5" width="5.7" height="21.7"/>
		
			<rect x="4215.3" y="1966.9" transform="matrix(-0.8393 0.5437 -0.5437 -0.8393 8833.7334 1344.3888)" class="st5" width="5.7" height="21.7"/>
		
			<rect x="4068.1" y="2016.7" transform="matrix(-0.9987 5.031565e-02 -5.031565e-02 -0.9987 8238.752 3847.8123)" class="st5" width="5.7" height="21.7"/>
		
			<rect x="3798.9" y="1883.3" transform="matrix(-0.5415 -0.8407 0.8407 -0.5415 4267.9053 6116.0752)" class="st5" width="5.7" height="21.7"/>
		
			<rect x="3749.6" y="1735.8" transform="matrix(-4.773110e-02 -0.9989 0.9989 -4.773110e-02 2186.8462 5578.231)" class="st5" width="5.7" height="21.7"/>
		
			<rect x="3883.8" y="1467.1" transform="matrix(0.8421 -0.5393 0.5393 0.8421 -183.4101 2329.4426)" class="st5" width="5.7" height="21.7"/>
		
			<rect x="4031.4" y="1418.2" transform="matrix(0.999 -4.514623e-02 4.514623e-02 0.999 -60.4048 183.5882)" class="st5" width="5.7" height="21.7"/>
	</g>
	<path class="st7" d="M317,1994.4c0,0-1,428.7,483.5,475.7C800.5,2470.1,397,2415.7,317,1994.4z"/>
	<path class="st7" d="M462.3,2036c0,0-0.8,353.7,398.9,392.4C861.2,2428.4,528.3,2383.6,462.3,2036z"/>
	<path class="st7" d="M645.8,2110.8c0,0-0.6,274.7,309.8,304.8C955.7,2415.6,697.1,2380.8,645.8,2110.8z"/>
	<path class="st7" d="M1139.3,271.4c0,0-332.5,270.7-62.1,675.4C1077.2,946.9,863.8,600.1,1139.3,271.4z"/>
	<path class="st7" d="M1199,410.3c0,0-274.3,223.3-51.2,557.2C1147.8,967.5,971.8,681.4,1199,410.3z"/>
	<path class="st7" d="M1257.3,599.7c0,0-213.1,173.4-39.8,432.8C1217.5,1032.5,1080.8,810.3,1257.3,599.7z"/>
	<path class="st7" d="M2883.5,146.5c0,0-425.9-49-526.9,427.2C2356.6,573.7,2455.8,178.8,2883.5,146.5z"/>
	<path class="st7" d="M2825.8,286.3c0,0-351.4-40.4-434.6,352.4C2391.2,638.7,2473,312.9,2825.8,286.3z"/>
	<path class="st7" d="M2730.9,460.3c0,0-272.9-31.4-337.6,273.7C2393.3,734,2456.9,481,2730.9,460.3z"/>
	<path class="st7" d="M4395.4,917.2c0,0-350.6-246.8-667,123C3728.3,1040.2,4004.4,740.9,4395.4,917.2z"/>
	<path class="st7" d="M4277.9,1012.3c0,0-289.2-203.6-550.2,101.5C3727.6,1113.8,3955.3,866.9,4277.9,1012.3z"/>
	<path class="st7" d="M4111.3,1119.7c0,0-224.6-158.2-427.4,78.8C3683.9,1198.5,3860.8,1006.7,4111.3,1119.7z"/>
</g>
</svg>
